<?xml version="1.0" standalone="no"?>
 <!DOCTYPE svg PUBLIC "-//W3C//DTD SVG 1.1//EN" 
 "http://www.w3.org/Graphics/SVG/1.1/DTD/svg11.dtd"> 
<svg
  xmlns:svg="http://www.w3.org/2000/svg"
  xmlns="http://www.w3.org/2000/svg"
  xmlns:xlink="http://www.w3.org/1999/xlink"
  version="1.1"
  width="16.009620cm" height="10.167620cm" viewBox="0 0 160096200 101676200">
<title>SVG Picture created as diagrama-brd.svg date 2022/09/06 16:35:39 </title>
  <desc>Picture generated by PCBNEW </desc>
<g style="fill:#000000; fill-opacity:1.000000;stroke:#000000; stroke-opacity:1.000000;
stroke-linecap:round; stroke-linejoin:round;"
 transform="translate(0 0) scale(1 1)">
</g>
<g style="fill:#000000; fill-opacity:0.0; 
stroke:#000000; stroke-width:0.000000; stroke-opacity:1; 
stroke-linecap:round; stroke-linejoin:round;">
</g>
<g style="fill:#000000; fill-opacity:0.0; 
stroke:#000000; stroke-width:150000.000000; stroke-opacity:1; 
stroke-linecap:round; stroke-linejoin:round;">
<text x="90831200.000000" y="38650000.000000"
textLength="2004524.000000" font-size="1333333.000000" lengthAdjust="spacingAndGlyphs"
text-anchor="middle" opacity="0">A2</text>
<g class="stroked-text"><desc>A2</desc>
<path d="M91545486 38316666
L91069296 38316666
" />
<path d="M91640724 38602380
L91307391 37602380
L90974058 38602380
" />
<path d="M90688343 37697619
L90640724 37650000
L90545486 37602380
L90307391 37602380
L90212153 37650000
L90164534 37697619
L90116915 37792857
L90116915 37888095
L90164534 38030952
L90735962 38602380
L90116915 38602380
" />
</g><text x="91466200.000000" y="3630000.000000"
textLength="2195000.000000" font-size="1333333.000000" lengthAdjust="spacingAndGlyphs"
text-anchor="middle" opacity="0">U1</text>
<g class="stroked-text"><desc>U1</desc>
<path d="M92228105 2582380
L92228105 3391904
L92180486 3487142
L92132867 3534761
L92037629 3582380
L91847153 3582380
L91751915 3534761
L91704296 3487142
L91656677 3391904
L91656677 2582380
" />
<path d="M90656677 3582380
L91228105 3582380
" />
<path d="M90942391 3582380
L90942391 2582380
L91037629 2725238
L91132867 2820476
L91228105 2868095
" />
</g><text x="38126200.000000" y="44460000.000000"
textLength="6480714.000000" font-size="1333333.000000" lengthAdjust="spacingAndGlyphs"
text-anchor="middle" opacity="0">C100uf1</text>
<g class="stroked-text"><desc>C100uf1</desc>
<path d="M40459534 44317142
L40507153 44364761
L40650010 44412380
L40745248 44412380
L40888105 44364761
L40983343 44269523
L41030962 44174285
L41078581 43983809
L41078581 43840952
L41030962 43650476
L40983343 43555238
L40888105 43460000
L40745248 43412380
L40650010 43412380
L40507153 43460000
L40459534 43507619
" />
<path d="M39507153 44412380
L40078581 44412380
" />
<path d="M39792867 44412380
L39792867 43412380
L39888105 43555238
L39983343 43650476
L40078581 43698095
" />
<path d="M38888105 43412380
L38792867 43412380
L38697629 43460000
L38650010 43507619
L38602391 43602857
L38554772 43793333
L38554772 44031428
L38602391 44221904
L38650010 44317142
L38697629 44364761
L38792867 44412380
L38888105 44412380
L38983343 44364761
L39030962 44317142
L39078581 44221904
L39126200 44031428
L39126200 43793333
L39078581 43602857
L39030962 43507619
L38983343 43460000
L38888105 43412380
" />
<path d="M37935724 43412380
L37840486 43412380
L37745248 43460000
L37697629 43507619
L37650010 43602857
L37602391 43793333
L37602391 44031428
L37650010 44221904
L37697629 44317142
L37745248 44364761
L37840486 44412380
L37935724 44412380
L38030962 44364761
L38078581 44317142
L38126200 44221904
L38173820 44031428
L38173820 43793333
L38126200 43602857
L38078581 43507619
L38030962 43460000
L37935724 43412380
" />
<path d="M36745248 43745714
L36745248 44412380
" />
<path d="M37173820 43745714
L37173820 44269523
L37126200 44364761
L37030962 44412380
L36888105 44412380
L36792867 44364761
L36745248 44317142
" />
<path d="M36411915 43745714
L36030962 43745714
" />
<path d="M36269058 44412380
L36269058 43555238
L36221439 43460000
L36126200 43412380
L36030962 43412380
" />
<path d="M35173820 44412380
L35745248 44412380
" />
<path d="M35459534 44412380
L35459534 43412380
L35554772 43555238
L35650010 43650476
L35745248 43698095
" />
</g><text x="147346200.000000" y="37530000.000000"
textLength="3004524.000000" font-size="1333333.000000" lengthAdjust="spacingAndGlyphs"
text-anchor="middle" opacity="0">RV1</text>
<g class="stroked-text"><desc>RV1</desc>
<path d="M147941439 37482380
L148274772 37006190
" />
<path d="M148512867 37482380
L148512867 36482380
L148131915 36482380
L148036677 36530000
L147989058 36577619
L147941439 36672857
L147941439 36815714
L147989058 36910952
L148036677 36958571
L148131915 37006190
L148512867 37006190
" />
<path d="M147655724 36482380
L147322391 37482380
L146989058 36482380
" />
<path d="M146131915 37482380
L146703343 37482380
" />
<path d="M146417629 37482380
L146417629 36482380
L146512867 36625238
L146608105 36720476
L146703343 36768095
" />
</g><text x="127026200.000000" y="18500000.000000"
textLength="2147381.000000" font-size="1333333.000000" lengthAdjust="spacingAndGlyphs"
text-anchor="middle" opacity="0">R1</text>
<g class="stroked-text"><desc>R1</desc>
<path d="M127192867 18452380
L127526200 17976190
" />
<path d="M127764296 18452380
L127764296 17452380
L127383343 17452380
L127288105 17500000
L127240486 17547619
L127192867 17642857
L127192867 17785714
L127240486 17880952
L127288105 17928571
L127383343 17976190
L127764296 17976190
" />
<path d="M126240486 18452380
L126811915 18452380
" />
<path d="M126526200 18452380
L126526200 17452380
L126621439 17595238
L126716677 17690476
L126811915 17738095
" />
</g><text x="149886200.000000" y="91030000.000000"
textLength="4480714.000000" font-size="1333333.000000" lengthAdjust="spacingAndGlyphs"
text-anchor="middle" opacity="0">REF**</text>
<g class="stroked-text"><desc>REF**</desc>
<path d="M151219534 90982380
L151552867 90506190
" />
<path d="M151790962 90982380
L151790962 89982380
L151410010 89982380
L151314772 90030000
L151267153 90077619
L151219534 90172857
L151219534 90315714
L151267153 90410952
L151314772 90458571
L151410010 90506190
L151790962 90506190
" />
<path d="M150790962 90458571
L150457629 90458571
" />
<path d="M150314772 90982380
L150790962 90982380
L150790962 89982380
L150314772 89982380
" />
<path d="M149552867 90458571
L149886200 90458571
" />
<path d="M149886200 90982380
L149886200 89982380
L149410010 89982380
" />
<path d="M148886200 89982380
L148886200 90220476
" />
<path d="M149124296 90125238
L148886200 90220476
L148648105 90125238
" />
<path d="M149029058 90410952
L148886200 90220476
L148743343 90410952
" />
<path d="M148124296 89982380
L148124296 90220476
" />
<path d="M148362391 90125238
L148124296 90220476
L147886200 90125238
" />
<path d="M148267153 90410952
L148124296 90220476
L147981439 90410952
" />
</g><text x="134936200.000000" y="71960000.000000"
textLength="5099762.000000" font-size="1333333.000000" lengthAdjust="spacingAndGlyphs"
text-anchor="middle" opacity="0">hc-05</text>
<g class="stroked-text"><desc>hc-05</desc>
<path d="M137150486 71912380
L137150486 70912380
" />
<path d="M136721915 71912380
L136721915 71388571
L136769534 71293333
L136864772 71245714
L137007629 71245714
L137102867 71293333
L137150486 71340952
" />
<path d="M135817153 71864761
L135912391 71912380
L136102867 71912380
L136198105 71864761
L136245724 71817142
L136293343 71721904
L136293343 71436190
L136245724 71340952
L136198105 71293333
L136102867 71245714
L135912391 71245714
L135817153 71293333
" />
<path d="M135388581 71531428
L134626677 71531428
" />
<path d="M133960010 70912380
L133864772 70912380
L133769534 70960000
L133721915 71007619
L133674296 71102857
L133626677 71293333
L133626677 71531428
L133674296 71721904
L133721915 71817142
L133769534 71864761
L133864772 71912380
L133960010 71912380
L134055248 71864761
L134102867 71817142
L134150486 71721904
L134198105 71531428
L134198105 71293333
L134150486 71102857
L134102867 71007619
L134055248 70960000
L133960010 70912380
" />
<path d="M132721915 70912380
L133198105 70912380
L133245724 71388571
L133198105 71340952
L133102867 71293333
L132864772 71293333
L132769534 71340952
L132721915 71388571
L132674296 71483809
L132674296 71721904
L132721915 71817142
L132769534 71864761
L132864772 71912380
L133102867 71912380
L133198105 71864761
L133245724 71817142
" />
</g><text x="10186200.000000" y="4670000.000000"
textLength="4480714.000000" font-size="1333333.000000" lengthAdjust="spacingAndGlyphs"
text-anchor="middle" opacity="0">REF**</text>
<g class="stroked-text"><desc>REF**</desc>
<path d="M11519534 4622380
L11852867 4146190
" />
<path d="M12090962 4622380
L12090962 3622380
L11710010 3622380
L11614772 3670000
L11567153 3717619
L11519534 3812857
L11519534 3955714
L11567153 4050952
L11614772 4098571
L11710010 4146190
L12090962 4146190
" />
<path d="M11090962 4098571
L10757629 4098571
" />
<path d="M10614772 4622380
L11090962 4622380
L11090962 3622380
L10614772 3622380
" />
<path d="M9852867 4098571
L10186200 4098571
" />
<path d="M10186200 4622380
L10186200 3622380
L9710010 3622380
" />
<path d="M9186200 3622380
L9186200 3860476
" />
<path d="M9424296 3765238
L9186200 3860476
L8948105 3765238
" />
<path d="M9329058 4050952
L9186200 3860476
L9043343 4050952
" />
<path d="M8424296 3622380
L8424296 3860476
" />
<path d="M8662391 3765238
L8424296 3860476
L8186200 3765238
" />
<path d="M8567153 4050952
L8424296 3860476
L8281439 4050952
" />
</g><g transform="rotate(-90.000000 19876200.000000 68890000.000000)">
<text x="19876200.000000" y="69390000.000000"
textLength="6052143.000000" font-size="1333333.000000" lengthAdjust="spacingAndGlyphs"
text-anchor="middle" opacity="0">NEMA17</text>
</g>
<g class="stroked-text"><desc>NEMA17</desc>
<path d="M19423820 71580476
L20423820 71580476
L19423820 71009047
L20423820 71009047
" />
<path d="M19947629 70532857
L19947629 70199523
" />
<path d="M19423820 70056666
L19423820 70532857
L20423820 70532857
L20423820 70056666
" />
<path d="M19423820 69628095
L20423820 69628095
L19709534 69294761
L20423820 68961428
L19423820 68961428
" />
<path d="M19709534 68532857
L19709534 68056666
" />
<path d="M19423820 68628095
L20423820 68294761
L19423820 67961428
" />
<path d="M19423820 67104285
L19423820 67675714
" />
<path d="M19423820 67390000
L20423820 67390000
L20280962 67485238
L20185724 67580476
L20138105 67675714
" />
<path d="M20423820 66770952
L20423820 66104285
L19423820 66532857
" />
</g><text x="38136200.000000" y="80560000.000000"
textLength="2004524.000000" font-size="1333333.000000" lengthAdjust="spacingAndGlyphs"
text-anchor="middle" opacity="0">A1</text>
<g class="stroked-text"><desc>A1</desc>
<path d="M38850486 80226666
L38374296 80226666
" />
<path d="M38945724 80512380
L38612391 79512380
L38279058 80512380
" />
<path d="M37421915 80512380
L37993343 80512380
" />
<path d="M37707629 80512380
L37707629 79512380
L37802867 79655238
L37898105 79750476
L37993343 79798095
" />
</g><text x="149886200.000000" y="4670000.000000"
textLength="4480714.000000" font-size="1333333.000000" lengthAdjust="spacingAndGlyphs"
text-anchor="middle" opacity="0">REF**</text>
<g class="stroked-text"><desc>REF**</desc>
<path d="M151219534 4622380
L151552867 4146190
" />
<path d="M151790962 4622380
L151790962 3622380
L151410010 3622380
L151314772 3670000
L151267153 3717619
L151219534 3812857
L151219534 3955714
L151267153 4050952
L151314772 4098571
L151410010 4146190
L151790962 4146190
" />
<path d="M150790962 4098571
L150457629 4098571
" />
<path d="M150314772 4622380
L150790962 4622380
L150790962 3622380
L150314772 3622380
" />
<path d="M149552867 4098571
L149886200 4098571
" />
<path d="M149886200 4622380
L149886200 3622380
L149410010 3622380
" />
<path d="M148886200 3622380
L148886200 3860476
" />
<path d="M149124296 3765238
L148886200 3860476
L148648105 3765238
" />
<path d="M149029058 4050952
L148886200 3860476
L148743343 4050952
" />
<path d="M148124296 3622380
L148124296 3860476
" />
<path d="M148362391 3765238
L148124296 3860476
L147886200 3765238
" />
<path d="M148267153 4050952
L148124296 3860476
L147981439 4050952
" />
</g><text x="10186200.000000" y="91030000.000000"
textLength="4480714.000000" font-size="1333333.000000" lengthAdjust="spacingAndGlyphs"
text-anchor="middle" opacity="0">REF**</text>
<g class="stroked-text"><desc>REF**</desc>
<path d="M11519534 90982380
L11852867 90506190
" />
<path d="M12090962 90982380
L12090962 89982380
L11710010 89982380
L11614772 90030000
L11567153 90077619
L11519534 90172857
L11519534 90315714
L11567153 90410952
L11614772 90458571
L11710010 90506190
L12090962 90506190
" />
<path d="M11090962 90458571
L10757629 90458571
" />
<path d="M10614772 90982380
L11090962 90982380
L11090962 89982380
L10614772 89982380
" />
<path d="M9852867 90458571
L10186200 90458571
" />
<path d="M10186200 90982380
L10186200 89982380
L9710010 89982380
" />
<path d="M9186200 89982380
L9186200 90220476
" />
<path d="M9424296 90125238
L9186200 90220476
L8948105 90125238
" />
<path d="M9329058 90410952
L9186200 90220476
L9043343 90410952
" />
<path d="M8424296 89982380
L8424296 90220476
" />
<path d="M8662391 90125238
L8424296 90220476
L8186200 90125238
" />
<path d="M8567153 90410952
L8424296 90220476
L8281439 90410952
" />
</g><text x="33666200.000000" y="32940000.000000"
textLength="1909286.000000" font-size="1333333.000000" lengthAdjust="spacingAndGlyphs"
text-anchor="middle" opacity="0">J1</text>
<g class="stroked-text"><desc>J1</desc>
<path d="M33999534 31892380
L33999534 32606666
L34047153 32749523
L34142391 32844761
L34285248 32892380
L34380486 32892380
" />
<path d="M32999534 32892380
L33570962 32892380
" />
<path d="M33285248 32892380
L33285248 31892380
L33380486 32035238
L33475724 32130476
L33570962 32178095
" />
</g></g>
<g style="fill:#000000; fill-opacity:0.0; 
stroke:#000000; stroke-width:120000.000000; stroke-opacity:1; 
stroke-linecap:round; stroke-linejoin:round;">
<path d="M51331200 77270000
L51331200 44500000
" />
<path d="M53871200 39290000
L120171200 39290000
" />
<path d="M122071200 42470000
L122071200 51610000
" />
<path d="M122071200 51610000
L120171200 51610000
" />
<path d="M120171200 42470000
L122071200 42470000
" />
<path d="M53871200 91240000
L53871200 79810000
" />
<path d="M120171200 92890000
L55521200 92890000
" />
<path d="M51331200 44500000
L53871200 41960000
" />
<path d="M55521200 92890000
L53871200 91240000
" />
<path d="M126521200 71680000
L126521200 83360000
" />
<path d="M120171200 71680000
L126521200 71680000
" />
<path d="M120171200 83360000
L120171200 92890000
" />
<path d="M120171200 39290000
L120171200 42470000
" />
<path d="M126521200 83360000
L120171200 83360000
" />
<path d="M53871200 41960000
L53871200 39290000
" />
<path d="M120171200 51610000
L120171200 71680000
" />
<path d="M53871200 79810000
L51331200 77270000
" />
<path d="M85166200 30080000
L73366200 22080000
" />
<path d="M85166200 5580000
L73366200 13580000
" />
<path d="M97566200 30180000
L109566200 22080000
" />
<path d="M97566200 5480000
L109466200 13480000
" />
<path d="M73366200.006731 13580000.009535 A5202163.000000 5202163.000000 0.0 0 0 73519023.973082 22183859.041163" />
<path d="M85060329.803744 30024152.373591 A13774343.000000 13774343.000000 0.0 0 0 97566200.403194 30180000.816303" />
<path d="M109543166.785631 22127693.690526 A5228049.000000 5228049.000000 0.0 0 0 109466200.113867 13479999.829199" />
<path d="M97566199.960342 5480000.080292 A13774342.000000 13774342.000000 0.0 0 0 85060330.268802 5635848.511689" />
<path d="M41536200 50655563
L41536200 49370000
" />
<path d="M40471763 51720000
L34716200 51720000
" />
<path d="M42563700 46462500
L41776200 46462500
" />
<path d="M42169950 46068750
L42169950 46856250
" />
<path d="M34716200 51720000
L34716200 49370000
" />
<path d="M34716200 44900000
L34716200 47250000
" />
<path d="M41536200 50655563
L40471763 51720000
" />
<path d="M41536200 45964437
L41536200 47250000
" />
<path d="M40471763 44900000
L34716200 44900000
" />
<path d="M41536200 45964437
L40471763 44900000
" />
<path d="M152231200 38160000
L142461200 38160000
" />
<path d="M142461200 38160000
L142461200 43230000
" />
<path d="M152231200 38160000
L152231200 43230000
" />
<path d="M152231200 43230000
L142461200 43230000
" />
<path d="M131066200 20370000
L130296200 20370000
" />
<path d="M130296200 21740000
L123756200 21740000
" />
<path d="M123756200 19000000
L130296200 19000000
" />
<path d="M130296200 19000000
L130296200 21740000
" />
<path d="M122986200 20370000
L123756200 20370000
" />
<path d="M123756200 21740000
L123756200 19000000
" />
<path d="M133961200 72900000
L133961200 73710000
" />
<path d="M134646200 72900000
L133961200 72900000
" />
<path d="M134126200 78155898
L134126200 78264102
" />
<path d="M134126200 79155898
L134126200 79520000
" />
<path d="M134126200 75155898
L134126200 75264102
" />
<path d="M135746200 79520000
L134126200 79520000
" />
<path d="M134126200 77155898
L134126200 77264102
" />
<path d="M135746200 74210000
L135331200 74210000
" />
<path d="M134126200 76155898
L134126200 76264102
" />
<path d="M135746200 74210000
L135746200 79520000
" />
<path d="M7376200 58740000
L6426200 58740000
" />
<path d="M19026200 58240000
L13976200 58240000
" />
<path d="M6426200 58740000
L6426200 79040000
" />
<path d="M8826200 58740000
L9126200 58190000
" />
<path d="M6426200 79040000
L19026200 79040000
" />
<path d="M14226200 58740000
L8826200 58740000
" />
<path d="M13976200 58240000
L14226200 58740000
" />
<path d="M9126200 58190000
L7076200 58190000
" />
<path d="M7076200 58190000
L7376200 58740000
" />
<path d="M19026200 79040000
L19026200 58240000
" />
<path d="M33056200 76250000
L30386200 76250000
" />
<path d="M43216200 78920000
L43216200 58340000
" />
<path d="M45886200 78920000
L33056200 78920000
" />
<path d="M30386200 78920000
L30386200 77520000
" />
<path d="M30386200 58340000
L45886200 58340000
" />
<path d="M45886200 58340000
L45886200 78920000
" />
<path d="M30386200 76250000
L30386200 58340000
" />
<path d="M33056200 78920000
L33056200 76250000
" />
<path d="M33056200 76250000
L33056200 58340000
" />
<path d="M31786200 78920000
L30386200 78920000
" />
<path d="M43786200 21750000
L43786200 21800000
" />
<path d="M43286200 19150000
L43286200 20100000
" />
<path d="M43786200 26650000
L43786200 31750000
" />
<path d="M43286200 26950000
L43786200 26650000
" />
<path d="M43286200 20100000
L43786200 19850000
" />
<path d="M43786200 19850000
L43786200 21750000
" />
<path d="M43286200 21550000
L43286200 26950000
" />
<path d="M32936200 31750000
L32936200 19150000
" />
<path d="M43786200 31750000
L32936200 31750000
" />
<path d="M43786200 21800000
L43286200 21550000
" />
<path d="M32936200 19150000
L43286200 19150000
" />
<g >
</g>
<g >
</g>
<g >
</g>
<g >
</g>
<g >
</g>
<g >
</g>
<g >
</g>
<g >
</g>
<g >
</g>
<g >
</g>
<g >
</g>
<g >
</g>
<g >
</g>
<g >
</g>
<g >
</g>
<g >
</g>
</g>
<g style="fill:#000000; fill-opacity:0.0; 
stroke:#000000; stroke-width:120000.000000; stroke-opacity:1; 
stroke-linecap:round; stroke-linejoin:round;">
</g>
<g style="fill:#000000; fill-opacity:0.0; 
stroke:#000000; stroke-width:150000.000000; stroke-opacity:1; 
stroke-linecap:round; stroke-linejoin:round;">
<text x="48286200.000000" y="27950000.000000"
textLength="6385476.000000" font-size="6666666.000000" lengthAdjust="spacingAndGlyphs"
text-anchor="middle" opacity="0">+</text>
<g class="stroked-text"><desc>+</desc>
<path d="M50190962 25807142
L46381439 25807142
" />
<path d="M48286200 27711904
L48286200 23902380
" />
</g><text x="27966200.000000" y="27950000.000000"
textLength="6385476.000000" font-size="6666666.000000" lengthAdjust="spacingAndGlyphs"
text-anchor="middle" opacity="0">-</text>
<g class="stroked-text"><desc>-</desc>
<path d="M29870962 25807142
L26061439 25807142
" />
</g><text x="92101200.000000" y="65320000.000000"
textLength="21385476.000000" font-size="1333333.000000" lengthAdjust="spacingAndGlyphs"
text-anchor="middle" opacity="0">Arduino_UNO_R3 modificado</text>
<g class="stroked-text"><desc>Arduino_UNO_R3 modificado</desc>
<path d="M102505962 64986666
L102029772 64986666
" />
<path d="M102601200 65272380
L102267867 64272380
L101934534 65272380
" />
<path d="M101601200 65272380
L101601200 64605714
" />
<path d="M101601200 64796190
L101553581 64700952
L101505962 64653333
L101410724 64605714
L101315486 64605714
" />
<path d="M100553581 65272380
L100553581 64272380
" />
<path d="M100553581 65224761
L100648820 65272380
L100839296 65272380
L100934534 65224761
L100982153 65177142
L101029772 65081904
L101029772 64796190
L100982153 64700952
L100934534 64653333
L100839296 64605714
L100648820 64605714
L100553581 64653333
" />
<path d="M99648820 64605714
L99648820 65272380
" />
<path d="M100077391 64605714
L100077391 65129523
L100029772 65224761
L99934534 65272380
L99791677 65272380
L99696439 65224761
L99648820 65177142
" />
<path d="M99172629 65272380
L99172629 64605714
" />
<path d="M99172629 64272380
L99220248 64320000
L99172629 64367619
L99125010 64320000
L99172629 64272380
L99172629 64367619
" />
<path d="M98696439 64605714
L98696439 65272380
" />
<path d="M98696439 64700952
L98648820 64653333
L98553581 64605714
L98410724 64605714
L98315486 64653333
L98267867 64748571
L98267867 65272380
" />
<path d="M97648820 65272380
L97744058 65224761
L97791677 65177142
L97839296 65081904
L97839296 64796190
L97791677 64700952
L97744058 64653333
L97648820 64605714
L97505962 64605714
L97410724 64653333
L97363105 64700952
L97315486 64796190
L97315486 65081904
L97363105 65177142
L97410724 65224761
L97505962 65272380
L97648820 65272380
" />
<path d="M97125010 65367619
L96363105 65367619
" />
<path d="M96125010 64272380
L96125010 65081904
L96077391 65177142
L96029772 65224761
L95934534 65272380
L95744058 65272380
L95648820 65224761
L95601200 65177142
L95553581 65081904
L95553581 64272380
" />
<path d="M95077391 65272380
L95077391 64272380
L94505962 65272380
L94505962 64272380
" />
<path d="M93839296 64272380
L93648820 64272380
L93553581 64320000
L93458343 64415238
L93410724 64605714
L93410724 64939047
L93458343 65129523
L93553581 65224761
L93648820 65272380
L93839296 65272380
L93934534 65224761
L94029772 65129523
L94077391 64939047
L94077391 64605714
L94029772 64415238
L93934534 64320000
L93839296 64272380
" />
<path d="M93220248 65367619
L92458343 65367619
" />
<path d="M91648820 65272380
L91982153 64796190
" />
<path d="M92220248 65272380
L92220248 64272380
L91839296 64272380
L91744058 64320000
L91696439 64367619
L91648820 64462857
L91648820 64605714
L91696439 64700952
L91744058 64748571
L91839296 64796190
L92220248 64796190
" />
<path d="M91315486 64272380
L90696439 64272380
L91029772 64653333
L90886915 64653333
L90791677 64700952
L90744058 64748571
L90696439 64843809
L90696439 65081904
L90744058 65177142
L90791677 65224761
L90886915 65272380
L91172629 65272380
L91267867 65224761
L91315486 65177142
" />
<path d="M89505962 65272380
L89505962 64605714
" />
<path d="M89505962 64700952
L89458343 64653333
L89363105 64605714
L89220248 64605714
L89125010 64653333
L89077391 64748571
L89077391 65272380
" />
<path d="M89077391 64748571
L89029772 64653333
L88934534 64605714
L88791677 64605714
L88696439 64653333
L88648820 64748571
L88648820 65272380
" />
<path d="M88029772 65272380
L88125010 65224761
L88172629 65177142
L88220248 65081904
L88220248 64796190
L88172629 64700952
L88125010 64653333
L88029772 64605714
L87886915 64605714
L87791677 64653333
L87744058 64700952
L87696439 64796190
L87696439 65081904
L87744058 65177142
L87791677 65224761
L87886915 65272380
L88029772 65272380
" />
<path d="M86839296 65272380
L86839296 64272380
" />
<path d="M86839296 65224761
L86934534 65272380
L87125010 65272380
L87220248 65224761
L87267867 65177142
L87315486 65081904
L87315486 64796190
L87267867 64700952
L87220248 64653333
L87125010 64605714
L86934534 64605714
L86839296 64653333
" />
<path d="M86363105 65272380
L86363105 64605714
" />
<path d="M86363105 64272380
L86410724 64320000
L86363105 64367619
L86315486 64320000
L86363105 64272380
L86363105 64367619
" />
<path d="M86029772 64605714
L85648820 64605714
" />
<path d="M85886915 65272380
L85886915 64415238
L85839296 64320000
L85744058 64272380
L85648820 64272380
" />
<path d="M85315486 65272380
L85315486 64605714
" />
<path d="M85315486 64272380
L85363105 64320000
L85315486 64367619
L85267867 64320000
L85315486 64272380
L85315486 64367619
" />
<path d="M84410724 65224761
L84505962 65272380
L84696439 65272380
L84791677 65224761
L84839296 65177142
L84886915 65081904
L84886915 64796190
L84839296 64700952
L84791677 64653333
L84696439 64605714
L84505962 64605714
L84410724 64653333
" />
<path d="M83553581 65272380
L83553581 64748571
L83601200 64653333
L83696439 64605714
L83886915 64605714
L83982153 64653333
" />
<path d="M83553581 65224761
L83648820 65272380
L83886915 65272380
L83982153 65224761
L84029772 65129523
L84029772 65034285
L83982153 64939047
L83886915 64891428
L83648820 64891428
L83553581 64843809
" />
<path d="M82648820 65272380
L82648820 64272380
" />
<path d="M82648820 65224761
L82744058 65272380
L82934534 65272380
L83029772 65224761
L83077391 65177142
L83125010 65081904
L83125010 64796190
L83077391 64700952
L83029772 64653333
L82934534 64605714
L82744058 64605714
L82648820 64653333
" />
<path d="M82029772 65272380
L82125010 65224761
L82172629 65177142
L82220248 65081904
L82220248 64796190
L82172629 64700952
L82125010 64653333
L82029772 64605714
L81886915 64605714
L81791677 64653333
L81744058 64700952
L81696439 64796190
L81696439 65081904
L81744058 65177142
L81791677 65224761
L81886915 65272380
L82029772 65272380
" />
</g><text x="92101200.000000" y="62780000.000000"
textLength="2004524.000000" font-size="1333333.000000" lengthAdjust="spacingAndGlyphs"
text-anchor="middle" opacity="0">A2</text>
<g class="stroked-text"><desc>A2</desc>
<path d="M92815486 62446666
L92339296 62446666
" />
<path d="M92910724 62732380
L92577391 61732380
L92244058 62732380
" />
<path d="M91958343 61827619
L91910724 61780000
L91815486 61732380
L91577391 61732380
L91482153 61780000
L91434534 61827619
L91386915 61922857
L91386915 62018095
L91434534 62160952
L92005962 62732380
L91386915 62732380
" />
</g><text x="93266200.000000" y="19380000.000000"
textLength="8528333.000000" font-size="1333333.000000" lengthAdjust="spacingAndGlyphs"
text-anchor="middle" opacity="0">LM338_TO3</text>
<g class="stroked-text"><desc>LM338_TO3</desc>
<path d="M96718581 19332380
L97194772 19332380
L97194772 18332380
" />
<path d="M96385248 19332380
L96385248 18332380
L96051915 19046666
L95718581 18332380
L95718581 19332380
" />
<path d="M95337629 18332380
L94718581 18332380
L95051915 18713333
L94909058 18713333
L94813820 18760952
L94766200 18808571
L94718581 18903809
L94718581 19141904
L94766200 19237142
L94813820 19284761
L94909058 19332380
L95194772 19332380
L95290010 19284761
L95337629 19237142
" />
<path d="M94385248 18332380
L93766200 18332380
L94099534 18713333
L93956677 18713333
L93861439 18760952
L93813820 18808571
L93766200 18903809
L93766200 19141904
L93813820 19237142
L93861439 19284761
L93956677 19332380
L94242391 19332380
L94337629 19284761
L94385248 19237142
" />
<path d="M93194772 18760952
L93290010 18713333
L93337629 18665714
L93385248 18570476
L93385248 18522857
L93337629 18427619
L93290010 18380000
L93194772 18332380
L93004296 18332380
L92909058 18380000
L92861439 18427619
L92813820 18522857
L92813820 18570476
L92861439 18665714
L92909058 18713333
L93004296 18760952
L93194772 18760952
L93290010 18808571
L93337629 18856190
L93385248 18951428
L93385248 19141904
L93337629 19237142
L93290010 19284761
L93194772 19332380
L93004296 19332380
L92909058 19284761
L92861439 19237142
L92813820 19141904
L92813820 18951428
L92861439 18856190
L92909058 18808571
L93004296 18760952
" />
<path d="M92623343 19427619
L91861439 19427619
" />
<path d="M91766200 18332380
L91194772 18332380
" />
<path d="M91480486 19332380
L91480486 18332380
" />
<path d="M90670962 18332380
L90480486 18332380
L90385248 18380000
L90290010 18475238
L90242391 18665714
L90242391 18999047
L90290010 19189523
L90385248 19284761
L90480486 19332380
L90670962 19332380
L90766200 19284761
L90861439 19189523
L90909058 18999047
L90909058 18665714
L90861439 18475238
L90766200 18380000
L90670962 18332380
" />
<path d="M89909058 18332380
L89290010 18332380
L89623343 18713333
L89480486 18713333
L89385248 18760952
L89337629 18808571
L89290010 18903809
L89290010 19141904
L89337629 19237142
L89385248 19284761
L89480486 19332380
L89766200 19332380
L89861439 19284761
L89909058 19237142
" />
</g><text x="93266200.000000" y="17130000.000000"
textLength="2195000.000000" font-size="1333333.000000" lengthAdjust="spacingAndGlyphs"
text-anchor="middle" opacity="0">U1</text>
<g class="stroked-text"><desc>U1</desc>
<path d="M94028105 16082380
L94028105 16891904
L93980486 16987142
L93932867 17034761
L93837629 17082380
L93647153 17082380
L93551915 17034761
L93504296 16987142
L93456677 16891904
L93456677 16082380
" />
<path d="M92456677 17082380
L93028105 17082380
" />
<path d="M92742391 17082380
L92742391 16082380
L92837629 16225238
L92932867 16320476
L93028105 16368095
" />
</g><text x="38126200.000000" y="53160000.000000"
textLength="8956905.000000" font-size="1333333.000000" lengthAdjust="spacingAndGlyphs"
text-anchor="middle" opacity="0">C_Polarized</text>
<g class="stroked-text"><desc>C_Polarized</desc>
<path d="M41697629 53017142
L41745248 53064761
L41888105 53112380
L41983343 53112380
L42126200 53064761
L42221439 52969523
L42269058 52874285
L42316677 52683809
L42316677 52540952
L42269058 52350476
L42221439 52255238
L42126200 52160000
L41983343 52112380
L41888105 52112380
L41745248 52160000
L41697629 52207619
" />
<path d="M41507153 53207619
L40745248 53207619
" />
<path d="M40507153 53112380
L40507153 52112380
L40126200 52112380
L40030962 52160000
L39983343 52207619
L39935724 52302857
L39935724 52445714
L39983343 52540952
L40030962 52588571
L40126200 52636190
L40507153 52636190
" />
<path d="M39364296 53112380
L39459534 53064761
L39507153 53017142
L39554772 52921904
L39554772 52636190
L39507153 52540952
L39459534 52493333
L39364296 52445714
L39221439 52445714
L39126200 52493333
L39078581 52540952
L39030962 52636190
L39030962 52921904
L39078581 53017142
L39126200 53064761
L39221439 53112380
L39364296 53112380
" />
<path d="M38459534 53112380
L38554772 53064761
L38602391 52969523
L38602391 52112380
" />
<path d="M37650010 53112380
L37650010 52588571
L37697629 52493333
L37792867 52445714
L37983343 52445714
L38078581 52493333
" />
<path d="M37650010 53064761
L37745248 53112380
L37983343 53112380
L38078581 53064761
L38126200 52969523
L38126200 52874285
L38078581 52779047
L37983343 52731428
L37745248 52731428
L37650010 52683809
" />
<path d="M37173820 53112380
L37173820 52445714
" />
<path d="M37173820 52636190
L37126200 52540952
L37078581 52493333
L36983343 52445714
L36888105 52445714
" />
<path d="M36554772 53112380
L36554772 52445714
" />
<path d="M36554772 52112380
L36602391 52160000
L36554772 52207619
L36507153 52160000
L36554772 52112380
L36554772 52207619
" />
<path d="M36173820 52445714
L35650010 52445714
L36173820 53112380
L35650010 53112380
" />
<path d="M34888105 53064761
L34983343 53112380
L35173820 53112380
L35269058 53064761
L35316677 52969523
L35316677 52588571
L35269058 52493333
L35173820 52445714
L34983343 52445714
L34888105 52493333
L34840486 52588571
L34840486 52683809
L35316677 52779047
" />
<path d="M33983343 53112380
L33983343 52112380
" />
<path d="M33983343 53064761
L34078581 53112380
L34269058 53112380
L34364296 53064761
L34411915 53017142
L34459534 52921904
L34459534 52636190
L34411915 52540952
L34364296 52493333
L34269058 52445714
L34078581 52445714
L33983343 52493333
" />
</g><text x="38126200.000000" y="48810000.000000"
textLength="6480714.000000" font-size="1333333.000000" lengthAdjust="spacingAndGlyphs"
text-anchor="middle" opacity="0">C100uf1</text>
<g class="stroked-text"><desc>C100uf1</desc>
<path d="M40459534 48667142
L40507153 48714761
L40650010 48762380
L40745248 48762380
L40888105 48714761
L40983343 48619523
L41030962 48524285
L41078581 48333809
L41078581 48190952
L41030962 48000476
L40983343 47905238
L40888105 47810000
L40745248 47762380
L40650010 47762380
L40507153 47810000
L40459534 47857619
" />
<path d="M39507153 48762380
L40078581 48762380
" />
<path d="M39792867 48762380
L39792867 47762380
L39888105 47905238
L39983343 48000476
L40078581 48048095
" />
<path d="M38888105 47762380
L38792867 47762380
L38697629 47810000
L38650010 47857619
L38602391 47952857
L38554772 48143333
L38554772 48381428
L38602391 48571904
L38650010 48667142
L38697629 48714761
L38792867 48762380
L38888105 48762380
L38983343 48714761
L39030962 48667142
L39078581 48571904
L39126200 48381428
L39126200 48143333
L39078581 47952857
L39030962 47857619
L38983343 47810000
L38888105 47762380
" />
<path d="M37935724 47762380
L37840486 47762380
L37745248 47810000
L37697629 47857619
L37650010 47952857
L37602391 48143333
L37602391 48381428
L37650010 48571904
L37697629 48667142
L37745248 48714761
L37840486 48762380
L37935724 48762380
L38030962 48714761
L38078581 48667142
L38126200 48571904
L38173820 48381428
L38173820 48143333
L38126200 47952857
L38078581 47857619
L38030962 47810000
L37935724 47762380
" />
<path d="M36745248 48095714
L36745248 48762380
" />
<path d="M37173820 48095714
L37173820 48619523
L37126200 48714761
L37030962 48762380
L36888105 48762380
L36792867 48714761
L36745248 48667142
" />
<path d="M36411915 48095714
L36030962 48095714
" />
<path d="M36269058 48762380
L36269058 47905238
L36221439 47810000
L36126200 47762380
L36030962 47762380
" />
<path d="M35173820 48762380
L35745248 48762380
" />
<path d="M35459534 48762380
L35459534 47762380
L35554772 47905238
L35650010 48000476
L35745248 48048095
" />
</g><text x="147346200.000000" y="44860000.000000"
textLength="12385476.000000" font-size="1333333.000000" lengthAdjust="spacingAndGlyphs"
text-anchor="middle" opacity="0">R_Potentiometer</text>
<g class="stroked-text"><desc>R_Potentiometer</desc>
<path d="M152631915 44812380
L152965248 44336190
" />
<path d="M153203343 44812380
L153203343 43812380
L152822391 43812380
L152727153 43860000
L152679534 43907619
L152631915 44002857
L152631915 44145714
L152679534 44240952
L152727153 44288571
L152822391 44336190
L153203343 44336190
" />
<path d="M152441439 44907619
L151679534 44907619
" />
<path d="M151441439 44812380
L151441439 43812380
L151060486 43812380
L150965248 43860000
L150917629 43907619
L150870010 44002857
L150870010 44145714
L150917629 44240952
L150965248 44288571
L151060486 44336190
L151441439 44336190
" />
<path d="M150298581 44812380
L150393820 44764761
L150441439 44717142
L150489058 44621904
L150489058 44336190
L150441439 44240952
L150393820 44193333
L150298581 44145714
L150155724 44145714
L150060486 44193333
L150012867 44240952
L149965248 44336190
L149965248 44621904
L150012867 44717142
L150060486 44764761
L150155724 44812380
L150298581 44812380
" />
<path d="M149679534 44145714
L149298581 44145714
" />
<path d="M149536677 43812380
L149536677 44669523
L149489058 44764761
L149393820 44812380
L149298581 44812380
" />
<path d="M148584296 44764761
L148679534 44812380
L148870010 44812380
L148965248 44764761
L149012867 44669523
L149012867 44288571
L148965248 44193333
L148870010 44145714
L148679534 44145714
L148584296 44193333
L148536677 44288571
L148536677 44383809
L149012867 44479047
" />
<path d="M148108105 44145714
L148108105 44812380
" />
<path d="M148108105 44240952
L148060486 44193333
L147965248 44145714
L147822391 44145714
L147727153 44193333
L147679534 44288571
L147679534 44812380
" />
<path d="M147346200 44145714
L146965248 44145714
" />
<path d="M147203343 43812380
L147203343 44669523
L147155724 44764761
L147060486 44812380
L146965248 44812380
" />
<path d="M146631915 44812380
L146631915 44145714
" />
<path d="M146631915 43812380
L146679534 43860000
L146631915 43907619
L146584296 43860000
L146631915 43812380
L146631915 43907619
" />
<path d="M146012867 44812380
L146108105 44764761
L146155724 44717142
L146203343 44621904
L146203343 44336190
L146155724 44240952
L146108105 44193333
L146012867 44145714
L145870010 44145714
L145774772 44193333
L145727153 44240952
L145679534 44336190
L145679534 44621904
L145727153 44717142
L145774772 44764761
L145870010 44812380
L146012867 44812380
" />
<path d="M145250962 44812380
L145250962 44145714
" />
<path d="M145250962 44240952
L145203343 44193333
L145108105 44145714
L144965248 44145714
L144870010 44193333
L144822391 44288571
L144822391 44812380
" />
<path d="M144822391 44288571
L144774772 44193333
L144679534 44145714
L144536677 44145714
L144441439 44193333
L144393820 44288571
L144393820 44812380
" />
<path d="M143536677 44764761
L143631915 44812380
L143822391 44812380
L143917629 44764761
L143965248 44669523
L143965248 44288571
L143917629 44193333
L143822391 44145714
L143631915 44145714
L143536677 44193333
L143489058 44288571
L143489058 44383809
L143965248 44479047
" />
<path d="M143203343 44145714
L142822391 44145714
" />
<path d="M143060486 43812380
L143060486 44669523
L143012867 44764761
L142917629 44812380
L142822391 44812380
" />
<path d="M142108105 44764761
L142203343 44812380
L142393820 44812380
L142489058 44764761
L142536677 44669523
L142536677 44288571
L142489058 44193333
L142393820 44145714
L142203343 44145714
L142108105 44193333
L142060486 44288571
L142060486 44383809
L142536677 44479047
" />
<path d="M141631915 44812380
L141631915 44145714
" />
<path d="M141631915 44336190
L141584296 44240952
L141536677 44193333
L141441439 44145714
L141346200 44145714
" />
</g><text x="147981200.000000" y="41195000.000000"
textLength="3004524.000000" font-size="1333333.000000" lengthAdjust="spacingAndGlyphs"
text-anchor="middle" opacity="0">RV1</text>
<g class="stroked-text"><desc>RV1</desc>
<path d="M148576439 41147380
L148909772 40671190
" />
<path d="M149147867 41147380
L149147867 40147380
L148766915 40147380
L148671677 40195000
L148624058 40242619
L148576439 40337857
L148576439 40480714
L148624058 40575952
L148671677 40623571
L148766915 40671190
L149147867 40671190
" />
<path d="M148290724 40147380
L147957391 41147380
L147624058 40147380
" />
<path d="M146766915 41147380
L147338343 41147380
" />
<path d="M147052629 41147380
L147052629 40147380
L147147867 40290238
L147243105 40385476
L147338343 40433095
" />
</g><text x="127026200.000000" y="23240000.000000"
textLength="6195000.000000" font-size="1333333.000000" lengthAdjust="spacingAndGlyphs"
text-anchor="middle" opacity="0">680ohm</text>
<g class="stroked-text"><desc>680ohm</desc>
<path d="M129359534 22192380
L129550010 22192380
L129645248 22240000
L129692867 22287619
L129788105 22430476
L129835724 22620952
L129835724 23001904
L129788105 23097142
L129740486 23144761
L129645248 23192380
L129454772 23192380
L129359534 23144761
L129311915 23097142
L129264296 23001904
L129264296 22763809
L129311915 22668571
L129359534 22620952
L129454772 22573333
L129645248 22573333
L129740486 22620952
L129788105 22668571
L129835724 22763809
" />
<path d="M128692867 22620952
L128788105 22573333
L128835724 22525714
L128883343 22430476
L128883343 22382857
L128835724 22287619
L128788105 22240000
L128692867 22192380
L128502391 22192380
L128407153 22240000
L128359534 22287619
L128311915 22382857
L128311915 22430476
L128359534 22525714
L128407153 22573333
L128502391 22620952
L128692867 22620952
L128788105 22668571
L128835724 22716190
L128883343 22811428
L128883343 23001904
L128835724 23097142
L128788105 23144761
L128692867 23192380
L128502391 23192380
L128407153 23144761
L128359534 23097142
L128311915 23001904
L128311915 22811428
L128359534 22716190
L128407153 22668571
L128502391 22620952
" />
<path d="M127692867 22192380
L127597629 22192380
L127502391 22240000
L127454772 22287619
L127407153 22382857
L127359534 22573333
L127359534 22811428
L127407153 23001904
L127454772 23097142
L127502391 23144761
L127597629 23192380
L127692867 23192380
L127788105 23144761
L127835724 23097142
L127883343 23001904
L127930962 22811428
L127930962 22573333
L127883343 22382857
L127835724 22287619
L127788105 22240000
L127692867 22192380
" />
<path d="M126788105 23192380
L126883343 23144761
L126930962 23097142
L126978581 23001904
L126978581 22716190
L126930962 22620952
L126883343 22573333
L126788105 22525714
L126645248 22525714
L126550010 22573333
L126502391 22620952
L126454772 22716190
L126454772 23001904
L126502391 23097142
L126550010 23144761
L126645248 23192380
L126788105 23192380
" />
<path d="M126026200 23192380
L126026200 22192380
" />
<path d="M125597629 23192380
L125597629 22668571
L125645248 22573333
L125740486 22525714
L125883343 22525714
L125978581 22573333
L126026200 22620952
" />
<path d="M125121439 23192380
L125121439 22525714
" />
<path d="M125121439 22620952
L125073820 22573333
L124978581 22525714
L124835724 22525714
L124740486 22573333
L124692867 22668571
L124692867 23192380
" />
<path d="M124692867 22668571
L124645248 22573333
L124550010 22525714
L124407153 22525714
L124311915 22573333
L124264296 22668571
L124264296 23192380
" />
</g><text x="127026200.000000" y="20870000.000000"
textLength="2147381.000000" font-size="1333333.000000" lengthAdjust="spacingAndGlyphs"
text-anchor="middle" opacity="0">R1</text>
<g class="stroked-text"><desc>R1</desc>
<path d="M127192867 20822380
L127526200 20346190
" />
<path d="M127764296 20822380
L127764296 19822380
L127383343 19822380
L127288105 19870000
L127240486 19917619
L127192867 20012857
L127192867 20155714
L127240486 20250952
L127288105 20298571
L127383343 20346190
L127764296 20346190
" />
<path d="M126240486 20822380
L126811915 20822380
" />
<path d="M126526200 20822380
L126526200 19822380
L126621439 19965238
L126716677 20060476
L126811915 20108095
" />
</g><text x="149886200.000000" y="98030000.000000"
textLength="16052143.000000" font-size="1333333.000000" lengthAdjust="spacingAndGlyphs"
text-anchor="middle" opacity="0">MountingHole_2.5mm</text>
<g class="stroked-text"><desc>MountingHole_2.5mm</desc>
<path d="M157576677 97982380
L157576677 96982380
L157243343 97696666
L156910010 96982380
L156910010 97982380
" />
<path d="M156290962 97982380
L156386201 97934761
L156433820 97887142
L156481439 97791904
L156481439 97506190
L156433820 97410952
L156386201 97363333
L156290962 97315714
L156148105 97315714
L156052867 97363333
L156005248 97410952
L155957629 97506190
L155957629 97791904
L156005248 97887142
L156052867 97934761
L156148105 97982380
L156290962 97982380
" />
<path d="M155100486 97315714
L155100486 97982380
" />
<path d="M155529058 97315714
L155529058 97839523
L155481439 97934761
L155386201 97982380
L155243343 97982380
L155148105 97934761
L155100486 97887142
" />
<path d="M154624296 97315714
L154624296 97982380
" />
<path d="M154624296 97410952
L154576677 97363333
L154481439 97315714
L154338581 97315714
L154243343 97363333
L154195724 97458571
L154195724 97982380
" />
<path d="M153862391 97315714
L153481439 97315714
" />
<path d="M153719534 96982380
L153719534 97839523
L153671915 97934761
L153576677 97982380
L153481439 97982380
" />
<path d="M153148105 97982380
L153148105 97315714
" />
<path d="M153148105 96982380
L153195724 97030000
L153148105 97077619
L153100486 97030000
L153148105 96982380
L153148105 97077619
" />
<path d="M152671915 97315714
L152671915 97982380
" />
<path d="M152671915 97410952
L152624296 97363333
L152529058 97315714
L152386201 97315714
L152290962 97363333
L152243343 97458571
L152243343 97982380
" />
<path d="M151338581 97315714
L151338581 98125238
L151386201 98220476
L151433820 98268095
L151529058 98315714
L151671915 98315714
L151767153 98268095
" />
<path d="M151338581 97934761
L151433820 97982380
L151624296 97982380
L151719534 97934761
L151767153 97887142
L151814772 97791904
L151814772 97506190
L151767153 97410952
L151719534 97363333
L151624296 97315714
L151433820 97315714
L151338581 97363333
" />
<path d="M150862391 97982380
L150862391 96982380
" />
<path d="M150862391 97458571
L150290962 97458571
" />
<path d="M150290962 97982380
L150290962 96982380
" />
<path d="M149671915 97982380
L149767153 97934761
L149814772 97887142
L149862391 97791904
L149862391 97506190
L149814772 97410952
L149767153 97363333
L149671915 97315714
L149529058 97315714
L149433820 97363333
L149386201 97410952
L149338581 97506190
L149338581 97791904
L149386201 97887142
L149433820 97934761
L149529058 97982380
L149671915 97982380
" />
<path d="M148767153 97982380
L148862391 97934761
L148910010 97839523
L148910010 96982380
" />
<path d="M148005248 97934761
L148100486 97982380
L148290962 97982380
L148386201 97934761
L148433820 97839523
L148433820 97458571
L148386201 97363333
L148290962 97315714
L148100486 97315714
L148005248 97363333
L147957629 97458571
L147957629 97553809
L148433820 97649047
" />
<path d="M147767153 98077619
L147005248 98077619
" />
<path d="M146814772 97077619
L146767153 97030000
L146671915 96982380
L146433820 96982380
L146338581 97030000
L146290962 97077619
L146243343 97172857
L146243343 97268095
L146290962 97410952
L146862391 97982380
L146243343 97982380
" />
<path d="M145814772 97887142
L145767153 97934761
L145814772 97982380
L145862391 97934761
L145814772 97887142
L145814772 97982380
" />
<path d="M144862391 96982380
L145338581 96982380
L145386201 97458571
L145338581 97410952
L145243343 97363333
L145005248 97363333
L144910010 97410952
L144862391 97458571
L144814772 97553809
L144814772 97791904
L144862391 97887142
L144910010 97934761
L145005248 97982380
L145243343 97982380
L145338581 97934761
L145386201 97887142
" />
<path d="M144386201 97982380
L144386201 97315714
" />
<path d="M144386201 97410952
L144338581 97363333
L144243343 97315714
L144100486 97315714
L144005248 97363333
L143957629 97458571
L143957629 97982380
" />
<path d="M143957629 97458571
L143910010 97363333
L143814772 97315714
L143671915 97315714
L143576677 97363333
L143529058 97458571
L143529058 97982380
" />
<path d="M143052867 97982380
L143052867 97315714
" />
<path d="M143052867 97410952
L143005248 97363333
L142910010 97315714
L142767153 97315714
L142671915 97363333
L142624296 97458571
L142624296 97982380
" />
<path d="M142624296 97458571
L142576677 97363333
L142481439 97315714
L142338581 97315714
L142243343 97363333
L142195724 97458571
L142195724 97982380
" />
</g><text x="149886200.000000" y="94530000.000000"
textLength="4480714.000000" font-size="1333333.000000" lengthAdjust="spacingAndGlyphs"
text-anchor="middle" opacity="0">REF**</text>
<g class="stroked-text"><desc>REF**</desc>
<path d="M151219534 94482380
L151552867 94006190
" />
<path d="M151790962 94482380
L151790962 93482380
L151410010 93482380
L151314772 93530000
L151267153 93577619
L151219534 93672857
L151219534 93815714
L151267153 93910952
L151314772 93958571
L151410010 94006190
L151790962 94006190
" />
<path d="M150790962 93958571
L150457629 93958571
" />
<path d="M150314772 94482380
L150790962 94482380
L150790962 93482380
L150314772 93482380
" />
<path d="M149552867 93958571
L149886200 93958571
" />
<path d="M149886200 94482380
L149886200 93482380
L149410010 93482380
" />
<path d="M148886200 93482380
L148886200 93720476
" />
<path d="M149124296 93625238
L148886200 93720476
L148648105 93625238
" />
<path d="M149029058 93910952
L148886200 93720476
L148743343 93910952
" />
<path d="M148124296 93482380
L148124296 93720476
" />
<path d="M148362391 93625238
L148124296 93720476
L147886200 93625238
" />
<path d="M148267153 93910952
L148124296 93720476
L147981439 93910952
" />
</g><text x="134936200.000000" y="81460000.000000"
textLength="15385476.000000" font-size="1333333.000000" lengthAdjust="spacingAndGlyphs"
text-anchor="middle" opacity="0">Conn_01x06_Female</text>
<g class="stroked-text"><desc>Conn_01x06_Female</desc>
<path d="M141721915 81317142
L141769534 81364761
L141912391 81412380
L142007629 81412380
L142150486 81364761
L142245724 81269523
L142293343 81174285
L142340962 80983809
L142340962 80840952
L142293343 80650476
L142245724 80555238
L142150486 80460000
L142007629 80412380
L141912391 80412380
L141769534 80460000
L141721915 80507619
" />
<path d="M141150486 81412380
L141245724 81364761
L141293343 81317142
L141340962 81221904
L141340962 80936190
L141293343 80840952
L141245724 80793333
L141150486 80745714
L141007629 80745714
L140912391 80793333
L140864772 80840952
L140817153 80936190
L140817153 81221904
L140864772 81317142
L140912391 81364761
L141007629 81412380
L141150486 81412380
" />
<path d="M140388581 80745714
L140388581 81412380
" />
<path d="M140388581 80840952
L140340962 80793333
L140245724 80745714
L140102867 80745714
L140007629 80793333
L139960010 80888571
L139960010 81412380
" />
<path d="M139483820 80745714
L139483820 81412380
" />
<path d="M139483820 80840952
L139436200 80793333
L139340962 80745714
L139198105 80745714
L139102867 80793333
L139055248 80888571
L139055248 81412380
" />
<path d="M138817153 81507619
L138055248 81507619
" />
<path d="M137626677 80412380
L137531439 80412380
L137436200 80460000
L137388581 80507619
L137340962 80602857
L137293343 80793333
L137293343 81031428
L137340962 81221904
L137388581 81317142
L137436200 81364761
L137531439 81412380
L137626677 81412380
L137721915 81364761
L137769534 81317142
L137817153 81221904
L137864772 81031428
L137864772 80793333
L137817153 80602857
L137769534 80507619
L137721915 80460000
L137626677 80412380
" />
<path d="M136340962 81412380
L136912391 81412380
" />
<path d="M136626677 81412380
L136626677 80412380
L136721915 80555238
L136817153 80650476
L136912391 80698095
" />
<path d="M136007629 81412380
L135483820 80745714
" />
<path d="M136007629 80745714
L135483820 81412380
" />
<path d="M134912391 80412380
L134817153 80412380
L134721915 80460000
L134674296 80507619
L134626677 80602857
L134579058 80793333
L134579058 81031428
L134626677 81221904
L134674296 81317142
L134721915 81364761
L134817153 81412380
L134912391 81412380
L135007629 81364761
L135055248 81317142
L135102867 81221904
L135150486 81031428
L135150486 80793333
L135102867 80602857
L135055248 80507619
L135007629 80460000
L134912391 80412380
" />
<path d="M133721915 80412380
L133912391 80412380
L134007629 80460000
L134055248 80507619
L134150486 80650476
L134198105 80840952
L134198105 81221904
L134150486 81317142
L134102867 81364761
L134007629 81412380
L133817153 81412380
L133721915 81364761
L133674296 81317142
L133626677 81221904
L133626677 80983809
L133674296 80888571
L133721915 80840952
L133817153 80793333
L134007629 80793333
L134102867 80840952
L134150486 80888571
L134198105 80983809
" />
<path d="M133436200 81507619
L132674296 81507619
" />
<path d="M132102867 80888571
L132436200 80888571
" />
<path d="M132436200 81412380
L132436200 80412380
L131960010 80412380
" />
<path d="M131198105 81364761
L131293343 81412380
L131483820 81412380
L131579058 81364761
L131626677 81269523
L131626677 80888571
L131579058 80793333
L131483820 80745714
L131293343 80745714
L131198105 80793333
L131150486 80888571
L131150486 80983809
L131626677 81079047
" />
<path d="M130721915 81412380
L130721915 80745714
" />
<path d="M130721915 80840952
L130674296 80793333
L130579058 80745714
L130436200 80745714
L130340962 80793333
L130293343 80888571
L130293343 81412380
" />
<path d="M130293343 80888571
L130245724 80793333
L130150486 80745714
L130007629 80745714
L129912391 80793333
L129864772 80888571
L129864772 81412380
" />
<path d="M128960010 81412380
L128960010 80888571
L129007629 80793333
L129102867 80745714
L129293343 80745714
L129388581 80793333
" />
<path d="M128960010 81364761
L129055248 81412380
L129293343 81412380
L129388581 81364761
L129436200 81269523
L129436200 81174285
L129388581 81079047
L129293343 81031428
L129055248 81031428
L128960010 80983809
" />
<path d="M128340962 81412380
L128436200 81364761
L128483820 81269523
L128483820 80412380
" />
<path d="M127579058 81364761
L127674296 81412380
L127864772 81412380
L127960010 81364761
L128007629 81269523
L128007629 80888571
L127960010 80793333
L127864772 80745714
L127674296 80745714
L127579058 80793333
L127531439 80888571
L127531439 80983809
L128007629 81079047
" />
</g></g>
<g style="fill:#000000; fill-opacity:0.0; 
stroke:#000000; stroke-width:140000.000000; stroke-opacity:1; 
stroke-linecap:round; stroke-linejoin:round;">
<g transform="rotate(-90.000000 134936200.000000 76210000.000000)">
<text x="134936200.000000" y="76660000.000000"
textLength="4609286.000000" font-size="1200000.000000" lengthAdjust="spacingAndGlyphs"
text-anchor="middle" opacity="0">hc-05</text>
</g>
<g class="stroked-text"><desc>hc-05</desc>
<path d="M134529058 78202857
L135429058 78202857
" />
<path d="M134529058 77817142
L135000486 77817142
L135086200 77860000
L135129058 77945714
L135129058 78074285
L135086200 78160000
L135043343 78202857
" />
<path d="M134571915 77002857
L134529058 77088571
L134529058 77260000
L134571915 77345714
L134614772 77388571
L134700486 77431428
L134957629 77431428
L135043343 77388571
L135086200 77345714
L135129058 77260000
L135129058 77088571
L135086200 77002857
" />
<path d="M134871915 76617142
L134871915 75931428
" />
<path d="M135429058 75331428
L135429058 75245714
L135386200 75160000
L135343343 75117142
L135257629 75074285
L135086200 75031428
L134871915 75031428
L134700486 75074285
L134614772 75117142
L134571915 75160000
L134529058 75245714
L134529058 75331428
L134571915 75417142
L134614772 75460000
L134700486 75502857
L134871915 75545714
L135086200 75545714
L135257629 75502857
L135343343 75460000
L135386200 75417142
L135429058 75331428
" />
<path d="M135429058 74217142
L135429058 74645714
L135000486 74688571
L135043343 74645714
L135086200 74560000
L135086200 74345714
L135043343 74260000
L135000486 74217142
L134914772 74174285
L134700486 74174285
L134614772 74217142
L134571915 74260000
L134529058 74345714
L134529058 74560000
L134571915 74645714
L134614772 74688571
" />
</g></g>
<g style="fill:#000000; fill-opacity:0.0; 
stroke:#000000; stroke-width:150000.000000; stroke-opacity:1; 
stroke-linecap:round; stroke-linejoin:round;">
<text x="10186200.000000" y="11670000.000000"
textLength="16039143.000000" font-size="1333333.000000" lengthAdjust="spacingAndGlyphs"
text-anchor="middle" opacity="0">MountingHole_2.5mm</text>
<g class="stroked-text"><desc>MountingHole_2.5mm</desc>
<path d="M17876677 11622380
L17876677 10622380
L17543343 11336666
L17210010 10622380
L17210010 11622380
" />
<path d="M16590962 11622380
L16686200 11574761
L16733820 11527142
L16781439 11431904
L16781439 11146190
L16733820 11050952
L16686200 11003333
L16590962 10955714
L16448105 10955714
L16352867 11003333
L16305248 11050952
L16257629 11146190
L16257629 11431904
L16305248 11527142
L16352867 11574761
L16448105 11622380
L16590962 11622380
" />
<path d="M15400486 10955714
L15400486 11622380
" />
<path d="M15829058 10955714
L15829058 11479523
L15781439 11574761
L15686200 11622380
L15543343 11622380
L15448105 11574761
L15400486 11527142
" />
<path d="M14924296 10955714
L14924296 11622380
" />
<path d="M14924296 11050952
L14876677 11003333
L14781439 10955714
L14638581 10955714
L14543343 11003333
L14495724 11098571
L14495724 11622380
" />
<path d="M14162391 10955714
L13781439 10955714
" />
<path d="M14019534 10622380
L14019534 11479523
L13971915 11574761
L13876677 11622380
L13781439 11622380
" />
<path d="M13448105 11622380
L13448105 10955714
" />
<path d="M13448105 10622380
L13495724 10670000
L13448105 10717619
L13400486 10670000
L13448105 10622380
L13448105 10717619
" />
<path d="M12971915 10955714
L12971915 11622380
" />
<path d="M12971915 11050952
L12924296 11003333
L12829058 10955714
L12686200 10955714
L12590962 11003333
L12543343 11098571
L12543343 11622380
" />
<path d="M11638581 10955714
L11638581 11765238
L11686200 11860476
L11733820 11908095
L11829058 11955714
L11971915 11955714
L12067153 11908095
" />
<path d="M11638581 11574761
L11733820 11622380
L11924296 11622380
L12019534 11574761
L12067153 11527142
L12114772 11431904
L12114772 11146190
L12067153 11050952
L12019534 11003333
L11924296 10955714
L11733820 10955714
L11638581 11003333
" />
<path d="M11162391 11622380
L11162391 10622380
" />
<path d="M11162391 11098571
L10590962 11098571
" />
<path d="M10590962 11622380
L10590962 10622380
" />
<path d="M9971915 11622380
L10067153 11574761
L10114772 11527142
L10162391 11431904
L10162391 11146190
L10114772 11050952
L10067153 11003333
L9971915 10955714
L9829058 10955714
L9733820 11003333
L9686200 11050952
L9638581 11146190
L9638581 11431904
L9686200 11527142
L9733820 11574761
L9829058 11622380
L9971915 11622380
" />
<path d="M9067153 11622380
L9162391 11574761
L9210010 11479523
L9210010 10622380
" />
<path d="M8305248 11574761
L8400486 11622380
L8590962 11622380
L8686200 11574761
L8733820 11479523
L8733820 11098571
L8686200 11003333
L8590962 10955714
L8400486 10955714
L8305248 11003333
L8257629 11098571
L8257629 11193809
L8733820 11289047
" />
<path d="M8067153 11717619
L7305248 11717619
" />
<path d="M7114772 10717619
L7067153 10670000
L6971915 10622380
L6733820 10622380
L6638581 10670000
L6590962 10717619
L6543343 10812857
L6543343 10908095
L6590962 11050952
L7162391 11622380
L6543343 11622380
" />
<path d="M6114772 11527142
L6067153 11574761
L6114772 11622380
L6162391 11574761
L6114772 11527142
L6114772 11622380
" />
<path d="M5162391 10622380
L5638581 10622380
L5686200 11098571
L5638581 11050952
L5543343 11003333
L5305248 11003333
L5210010 11050952
L5162391 11098571
L5114772 11193809
L5114772 11431904
L5162391 11527142
L5210010 11574761
L5305248 11622380
L5543343 11622380
L5638581 11574761
L5686200 11527142
" />
<path d="M4686200 11622380
L4686200 10955714
" />
<path d="M4686200 11050952
L4638581 11003333
L4543343 10955714
L4400486 10955714
L4305248 11003333
L4257629 11098571
L4257629 11622380
" />
<path d="M4257629 11098571
L4210010 11003333
L4114772 10955714
L3971915 10955714
L3876677 11003333
L3829058 11098571
L3829058 11622380
" />
<path d="M3352867 11622380
L3352867 10955714
" />
<path d="M3352867 11050952
L3305248 11003333
L3210010 10955714
L3067153 10955714
L2971915 11003333
L2924296 11098571
L2924296 11622380
" />
<path d="M2924296 11098571
L2876677 11003333
L2781439 10955714
L2638581 10955714
L2543343 11003333
L2495724 11098571
L2495724 11622380
" />
</g><text x="10186200.000000" y="8170000.000000"
textLength="4480714.000000" font-size="1333333.000000" lengthAdjust="spacingAndGlyphs"
text-anchor="middle" opacity="0">REF**</text>
<g class="stroked-text"><desc>REF**</desc>
<path d="M11519534 8122380
L11852867 7646190
" />
<path d="M12090962 8122380
L12090962 7122380
L11710010 7122380
L11614772 7170000
L11567153 7217619
L11519534 7312857
L11519534 7455714
L11567153 7550952
L11614772 7598571
L11710010 7646190
L12090962 7646190
" />
<path d="M11090962 7598571
L10757629 7598571
" />
<path d="M10614772 8122380
L11090962 8122380
L11090962 7122380
L10614772 7122380
" />
<path d="M9852867 7598571
L10186200 7598571
" />
<path d="M10186200 8122380
L10186200 7122380
L9710010 7122380
" />
<path d="M9186200 7122380
L9186200 7360476
" />
<path d="M9424296 7265238
L9186200 7360476
L8948105 7265238
" />
<path d="M9329058 7550952
L9186200 7360476
L9043343 7550952
" />
<path d="M8424296 7122380
L8424296 7360476
" />
<path d="M8662391 7265238
L8424296 7360476
L8186200 7265238
" />
<path d="M8567153 7550952
L8424296 7360476
L8281439 7550952
" />
</g><g transform="rotate(-90.000000 5276200.000000 68940000.000000)">
<text x="5276200.000000" y="69440000.000000"
textLength="15385476.000000" font-size="1333333.000000" lengthAdjust="spacingAndGlyphs"
text-anchor="middle" opacity="0">Conn_01x04_Female</text>
</g>
<g class="stroked-text"><desc>Conn_01x04_Female</desc>
<path d="M4919058 75725714
L4871439 75773333
L4823820 75916190
L4823820 76011428
L4871439 76154285
L4966677 76249523
L5061915 76297142
L5252391 76344761
L5395248 76344761
L5585724 76297142
L5680962 76249523
L5776200 76154285
L5823820 76011428
L5823820 75916190
L5776200 75773333
L5728581 75725714
" />
<path d="M4823820 75154285
L4871439 75249523
L4919058 75297142
L5014296 75344761
L5300010 75344761
L5395248 75297142
L5442867 75249523
L5490486 75154285
L5490486 75011428
L5442867 74916190
L5395248 74868571
L5300010 74820952
L5014296 74820952
L4919058 74868571
L4871439 74916190
L4823820 75011428
L4823820 75154285
" />
<path d="M5490486 74392380
L4823820 74392380
" />
<path d="M5395248 74392380
L5442867 74344761
L5490486 74249523
L5490486 74106666
L5442867 74011428
L5347629 73963809
L4823820 73963809
" />
<path d="M5490486 73487619
L4823820 73487619
" />
<path d="M5395248 73487619
L5442867 73440000
L5490486 73344761
L5490486 73201904
L5442867 73106666
L5347629 73059047
L4823820 73059047
" />
<path d="M4728581 72820952
L4728581 72059047
" />
<path d="M5823820 71630476
L5823820 71535238
L5776200 71440000
L5728581 71392380
L5633343 71344761
L5442867 71297142
L5204772 71297142
L5014296 71344761
L4919058 71392380
L4871439 71440000
L4823820 71535238
L4823820 71630476
L4871439 71725714
L4919058 71773333
L5014296 71820952
L5204772 71868571
L5442867 71868571
L5633343 71820952
L5728581 71773333
L5776200 71725714
L5823820 71630476
" />
<path d="M4823820 70344761
L4823820 70916190
" />
<path d="M4823820 70630476
L5823820 70630476
L5680962 70725714
L5585724 70820952
L5538105 70916190
" />
<path d="M4823820 70011428
L5490486 69487619
" />
<path d="M5490486 70011428
L4823820 69487619
" />
<path d="M5823820 68916190
L5823820 68820952
L5776200 68725714
L5728581 68678095
L5633343 68630476
L5442867 68582857
L5204772 68582857
L5014296 68630476
L4919058 68678095
L4871439 68725714
L4823820 68820952
L4823820 68916190
L4871439 69011428
L4919058 69059047
L5014296 69106666
L5204772 69154285
L5442867 69154285
L5633343 69106666
L5728581 69059047
L5776200 69011428
L5823820 68916190
" />
<path d="M5490486 67725714
L4823820 67725714
" />
<path d="M5871439 67963809
L5157153 68201904
L5157153 67582857
" />
<path d="M4728581 67440000
L4728581 66678095
" />
<path d="M5347629 66106666
L5347629 66440000
" />
<path d="M4823820 66440000
L5823820 66440000
L5823820 65963809
" />
<path d="M4871439 65201904
L4823820 65297142
L4823820 65487619
L4871439 65582857
L4966677 65630476
L5347629 65630476
L5442867 65582857
L5490486 65487619
L5490486 65297142
L5442867 65201904
L5347629 65154285
L5252391 65154285
L5157153 65630476
" />
<path d="M4823820 64725714
L5490486 64725714
" />
<path d="M5395248 64725714
L5442867 64678095
L5490486 64582857
L5490486 64440000
L5442867 64344761
L5347629 64297142
L4823820 64297142
" />
<path d="M5347629 64297142
L5442867 64249523
L5490486 64154285
L5490486 64011428
L5442867 63916190
L5347629 63868571
L4823820 63868571
" />
<path d="M4823820 62963809
L5347629 62963809
L5442867 63011428
L5490486 63106666
L5490486 63297142
L5442867 63392380
" />
<path d="M4871439 62963809
L4823820 63059047
L4823820 63297142
L4871439 63392380
L4966677 63440000
L5061915 63440000
L5157153 63392380
L5204772 63297142
L5204772 63059047
L5252391 62963809
" />
<path d="M4823820 62344761
L4871439 62440000
L4966677 62487619
L5823820 62487619
" />
<path d="M4871439 61582857
L4823820 61678095
L4823820 61868571
L4871439 61963809
L4966677 62011428
L5347629 62011428
L5442867 61963809
L5490486 61868571
L5490486 61678095
L5442867 61582857
L5347629 61535238
L5252391 61535238
L5157153 62011428
" />
</g><g transform="rotate(-90.000000 14726200.000000 68890000.000000)">
<text x="14726200.000000" y="69390000.000000"
textLength="6052143.000000" font-size="1333333.000000" lengthAdjust="spacingAndGlyphs"
text-anchor="middle" opacity="0">NEMA17</text>
</g>
<g class="stroked-text"><desc>NEMA17</desc>
<path d="M14273820 71580476
L15273820 71580476
L14273820 71009047
L15273820 71009047
" />
<path d="M14797629 70532857
L14797629 70199523
" />
<path d="M14273820 70056666
L14273820 70532857
L15273820 70532857
L15273820 70056666
" />
<path d="M14273820 69628095
L15273820 69628095
L14559534 69294761
L15273820 68961428
L14273820 68961428
" />
<path d="M14559534 68532857
L14559534 68056666
" />
<path d="M14273820 68628095
L15273820 68294761
L14273820 67961428
" />
<path d="M14273820 67104285
L14273820 67675714
" />
<path d="M14273820 67390000
L15273820 67390000
L15130962 67485238
L15035724 67580476
L14988105 67675714
" />
<path d="M15273820 66770952
L15273820 66104285
L14273820 66532857
" />
</g><text x="38136200.000000" y="57850000.000000"
textLength="4861667.000000" font-size="1333333.000000" lengthAdjust="spacingAndGlyphs"
text-anchor="middle" opacity="0">A4988</text>
<g class="stroked-text"><desc>A4988</desc>
<path d="M40279058 57516666
L39802867 57516666
" />
<path d="M40374296 57802380
L40040962 56802380
L39707629 57802380
" />
<path d="M38945724 57135714
L38945724 57802380
" />
<path d="M39183820 56754761
L39421915 57469047
L38802867 57469047
" />
<path d="M38374296 57802380
L38183820 57802380
L38088581 57754761
L38040962 57707142
L37945724 57564285
L37898105 57373809
L37898105 56992857
L37945724 56897619
L37993343 56850000
L38088581 56802380
L38279058 56802380
L38374296 56850000
L38421915 56897619
L38469534 56992857
L38469534 57230952
L38421915 57326190
L38374296 57373809
L38279058 57421428
L38088581 57421428
L37993343 57373809
L37945724 57326190
L37898105 57230952
" />
<path d="M37326677 57230952
L37421915 57183333
L37469534 57135714
L37517153 57040476
L37517153 56992857
L37469534 56897619
L37421915 56850000
L37326677 56802380
L37136200 56802380
L37040962 56850000
L36993343 56897619
L36945724 56992857
L36945724 57040476
L36993343 57135714
L37040962 57183333
L37136200 57230952
L37326677 57230952
L37421915 57278571
L37469534 57326190
L37517153 57421428
L37517153 57611904
L37469534 57707142
L37421915 57754761
L37326677 57802380
L37136200 57802380
L37040962 57754761
L36993343 57707142
L36945724 57611904
L36945724 57421428
L36993343 57326190
L37040962 57278571
L37136200 57230952
" />
<path d="M36374296 57230952
L36469534 57183333
L36517153 57135714
L36564772 57040476
L36564772 56992857
L36517153 56897619
L36469534 56850000
L36374296 56802380
L36183820 56802380
L36088581 56850000
L36040962 56897619
L35993343 56992857
L35993343 57040476
L36040962 57135714
L36088581 57183333
L36183820 57230952
L36374296 57230952
L36469534 57278571
L36517153 57326190
L36564772 57421428
L36564772 57611904
L36517153 57707142
L36469534 57754761
L36374296 57802380
L36183820 57802380
L36088581 57754761
L36040962 57707142
L35993343 57611904
L35993343 57421428
L36040962 57326190
L36088581 57278571
L36183820 57230952
" />
</g><text x="38136200.000000" y="78020000.000000"
textLength="2004524.000000" font-size="1333333.000000" lengthAdjust="spacingAndGlyphs"
text-anchor="middle" opacity="0">A1</text>
<g class="stroked-text"><desc>A1</desc>
<path d="M38850486 77686666
L38374296 77686666
" />
<path d="M38945724 77972380
L38612391 76972380
L38279058 77972380
" />
<path d="M37421915 77972380
L37993343 77972380
" />
<path d="M37707629 77972380
L37707629 76972380
L37802867 77115238
L37898105 77210476
L37993343 77258095
" />
</g><text x="149886200.000000" y="11670000.000000"
textLength="16052143.000000" font-size="1333333.000000" lengthAdjust="spacingAndGlyphs"
text-anchor="middle" opacity="0">MountingHole_2.5mm</text>
<g class="stroked-text"><desc>MountingHole_2.5mm</desc>
<path d="M157576677 11622380
L157576677 10622380
L157243343 11336666
L156910010 10622380
L156910010 11622380
" />
<path d="M156290962 11622380
L156386201 11574761
L156433820 11527142
L156481439 11431904
L156481439 11146190
L156433820 11050952
L156386201 11003333
L156290962 10955714
L156148105 10955714
L156052867 11003333
L156005248 11050952
L155957629 11146190
L155957629 11431904
L156005248 11527142
L156052867 11574761
L156148105 11622380
L156290962 11622380
" />
<path d="M155100486 10955714
L155100486 11622380
" />
<path d="M155529058 10955714
L155529058 11479523
L155481439 11574761
L155386201 11622380
L155243343 11622380
L155148105 11574761
L155100486 11527142
" />
<path d="M154624296 10955714
L154624296 11622380
" />
<path d="M154624296 11050952
L154576677 11003333
L154481439 10955714
L154338581 10955714
L154243343 11003333
L154195724 11098571
L154195724 11622380
" />
<path d="M153862391 10955714
L153481439 10955714
" />
<path d="M153719534 10622380
L153719534 11479523
L153671915 11574761
L153576677 11622380
L153481439 11622380
" />
<path d="M153148105 11622380
L153148105 10955714
" />
<path d="M153148105 10622380
L153195724 10670000
L153148105 10717619
L153100486 10670000
L153148105 10622380
L153148105 10717619
" />
<path d="M152671915 10955714
L152671915 11622380
" />
<path d="M152671915 11050952
L152624296 11003333
L152529058 10955714
L152386201 10955714
L152290962 11003333
L152243343 11098571
L152243343 11622380
" />
<path d="M151338581 10955714
L151338581 11765238
L151386201 11860476
L151433820 11908095
L151529058 11955714
L151671915 11955714
L151767153 11908095
" />
<path d="M151338581 11574761
L151433820 11622380
L151624296 11622380
L151719534 11574761
L151767153 11527142
L151814772 11431904
L151814772 11146190
L151767153 11050952
L151719534 11003333
L151624296 10955714
L151433820 10955714
L151338581 11003333
" />
<path d="M150862391 11622380
L150862391 10622380
" />
<path d="M150862391 11098571
L150290962 11098571
" />
<path d="M150290962 11622380
L150290962 10622380
" />
<path d="M149671915 11622380
L149767153 11574761
L149814772 11527142
L149862391 11431904
L149862391 11146190
L149814772 11050952
L149767153 11003333
L149671915 10955714
L149529058 10955714
L149433820 11003333
L149386201 11050952
L149338581 11146190
L149338581 11431904
L149386201 11527142
L149433820 11574761
L149529058 11622380
L149671915 11622380
" />
<path d="M148767153 11622380
L148862391 11574761
L148910010 11479523
L148910010 10622380
" />
<path d="M148005248 11574761
L148100486 11622380
L148290962 11622380
L148386201 11574761
L148433820 11479523
L148433820 11098571
L148386201 11003333
L148290962 10955714
L148100486 10955714
L148005248 11003333
L147957629 11098571
L147957629 11193809
L148433820 11289047
" />
<path d="M147767153 11717619
L147005248 11717619
" />
<path d="M146814772 10717619
L146767153 10670000
L146671915 10622380
L146433820 10622380
L146338581 10670000
L146290962 10717619
L146243343 10812857
L146243343 10908095
L146290962 11050952
L146862391 11622380
L146243343 11622380
" />
<path d="M145814772 11527142
L145767153 11574761
L145814772 11622380
L145862391 11574761
L145814772 11527142
L145814772 11622380
" />
<path d="M144862391 10622380
L145338581 10622380
L145386201 11098571
L145338581 11050952
L145243343 11003333
L145005248 11003333
L144910010 11050952
L144862391 11098571
L144814772 11193809
L144814772 11431904
L144862391 11527142
L144910010 11574761
L145005248 11622380
L145243343 11622380
L145338581 11574761
L145386201 11527142
" />
<path d="M144386201 11622380
L144386201 10955714
" />
<path d="M144386201 11050952
L144338581 11003333
L144243343 10955714
L144100486 10955714
L144005248 11003333
L143957629 11098571
L143957629 11622380
" />
<path d="M143957629 11098571
L143910010 11003333
L143814772 10955714
L143671915 10955714
L143576677 11003333
L143529058 11098571
L143529058 11622380
" />
<path d="M143052867 11622380
L143052867 10955714
" />
<path d="M143052867 11050952
L143005248 11003333
L142910010 10955714
L142767153 10955714
L142671915 11003333
L142624296 11098571
L142624296 11622380
" />
<path d="M142624296 11098571
L142576677 11003333
L142481439 10955714
L142338581 10955714
L142243343 11003333
L142195724 11098571
L142195724 11622380
" />
</g><text x="149886200.000000" y="8170000.000000"
textLength="4480714.000000" font-size="1333333.000000" lengthAdjust="spacingAndGlyphs"
text-anchor="middle" opacity="0">REF**</text>
<g class="stroked-text"><desc>REF**</desc>
<path d="M151219534 8122380
L151552867 7646190
" />
<path d="M151790962 8122380
L151790962 7122380
L151410010 7122380
L151314772 7170000
L151267153 7217619
L151219534 7312857
L151219534 7455714
L151267153 7550952
L151314772 7598571
L151410010 7646190
L151790962 7646190
" />
<path d="M150790962 7598571
L150457629 7598571
" />
<path d="M150314772 8122380
L150790962 8122380
L150790962 7122380
L150314772 7122380
" />
<path d="M149552867 7598571
L149886200 7598571
" />
<path d="M149886200 8122380
L149886200 7122380
L149410010 7122380
" />
<path d="M148886200 7122380
L148886200 7360476
" />
<path d="M149124296 7265238
L148886200 7360476
L148648105 7265238
" />
<path d="M149029058 7550952
L148886200 7360476
L148743343 7550952
" />
<path d="M148124296 7122380
L148124296 7360476
" />
<path d="M148362391 7265238
L148124296 7360476
L147886200 7265238
" />
<path d="M148267153 7550952
L148124296 7360476
L147981439 7550952
" />
</g><text x="10186200.000000" y="98030000.000000"
textLength="16052143.000000" font-size="1333333.000000" lengthAdjust="spacingAndGlyphs"
text-anchor="middle" opacity="0">MountingHole_2.5mm</text>
<g class="stroked-text"><desc>MountingHole_2.5mm</desc>
<path d="M17876677 97982380
L17876677 96982380
L17543343 97696666
L17210010 96982380
L17210010 97982380
" />
<path d="M16590962 97982380
L16686200 97934761
L16733820 97887142
L16781439 97791904
L16781439 97506190
L16733820 97410952
L16686200 97363333
L16590962 97315714
L16448105 97315714
L16352867 97363333
L16305248 97410952
L16257629 97506190
L16257629 97791904
L16305248 97887142
L16352867 97934761
L16448105 97982380
L16590962 97982380
" />
<path d="M15400486 97315714
L15400486 97982380
" />
<path d="M15829058 97315714
L15829058 97839523
L15781439 97934761
L15686200 97982380
L15543343 97982380
L15448105 97934761
L15400486 97887142
" />
<path d="M14924296 97315714
L14924296 97982380
" />
<path d="M14924296 97410952
L14876677 97363333
L14781439 97315714
L14638581 97315714
L14543343 97363333
L14495724 97458571
L14495724 97982380
" />
<path d="M14162391 97315714
L13781439 97315714
" />
<path d="M14019534 96982380
L14019534 97839523
L13971915 97934761
L13876677 97982380
L13781439 97982380
" />
<path d="M13448105 97982380
L13448105 97315714
" />
<path d="M13448105 96982380
L13495724 97030000
L13448105 97077619
L13400486 97030000
L13448105 96982380
L13448105 97077619
" />
<path d="M12971915 97315714
L12971915 97982380
" />
<path d="M12971915 97410952
L12924296 97363333
L12829058 97315714
L12686200 97315714
L12590962 97363333
L12543343 97458571
L12543343 97982380
" />
<path d="M11638581 97315714
L11638581 98125238
L11686200 98220476
L11733820 98268095
L11829058 98315714
L11971915 98315714
L12067153 98268095
" />
<path d="M11638581 97934761
L11733820 97982380
L11924296 97982380
L12019534 97934761
L12067153 97887142
L12114772 97791904
L12114772 97506190
L12067153 97410952
L12019534 97363333
L11924296 97315714
L11733820 97315714
L11638581 97363333
" />
<path d="M11162391 97982380
L11162391 96982380
" />
<path d="M11162391 97458571
L10590962 97458571
" />
<path d="M10590962 97982380
L10590962 96982380
" />
<path d="M9971915 97982380
L10067153 97934761
L10114772 97887142
L10162391 97791904
L10162391 97506190
L10114772 97410952
L10067153 97363333
L9971915 97315714
L9829058 97315714
L9733820 97363333
L9686200 97410952
L9638581 97506190
L9638581 97791904
L9686200 97887142
L9733820 97934761
L9829058 97982380
L9971915 97982380
" />
<path d="M9067153 97982380
L9162391 97934761
L9210010 97839523
L9210010 96982380
" />
<path d="M8305248 97934761
L8400486 97982380
L8590962 97982380
L8686200 97934761
L8733820 97839523
L8733820 97458571
L8686200 97363333
L8590962 97315714
L8400486 97315714
L8305248 97363333
L8257629 97458571
L8257629 97553809
L8733820 97649047
" />
<path d="M8067153 98077619
L7305248 98077619
" />
<path d="M7114772 97077619
L7067153 97030000
L6971915 96982380
L6733820 96982380
L6638581 97030000
L6590962 97077619
L6543343 97172857
L6543343 97268095
L6590962 97410952
L7162391 97982380
L6543343 97982380
" />
<path d="M6114772 97887142
L6067153 97934761
L6114772 97982380
L6162391 97934761
L6114772 97887142
L6114772 97982380
" />
<path d="M5162391 96982380
L5638581 96982380
L5686200 97458571
L5638581 97410952
L5543343 97363333
L5305248 97363333
L5210010 97410952
L5162391 97458571
L5114772 97553809
L5114772 97791904
L5162391 97887142
L5210010 97934761
L5305248 97982380
L5543343 97982380
L5638581 97934761
L5686200 97887142
" />
<path d="M4686200 97982380
L4686200 97315714
" />
<path d="M4686200 97410952
L4638581 97363333
L4543343 97315714
L4400486 97315714
L4305248 97363333
L4257629 97458571
L4257629 97982380
" />
<path d="M4257629 97458571
L4210010 97363333
L4114772 97315714
L3971915 97315714
L3876677 97363333
L3829058 97458571
L3829058 97982380
" />
<path d="M3352867 97982380
L3352867 97315714
" />
<path d="M3352867 97410952
L3305248 97363333
L3210010 97315714
L3067153 97315714
L2971915 97363333
L2924296 97458571
L2924296 97982380
" />
<path d="M2924296 97458571
L2876677 97363333
L2781439 97315714
L2638581 97315714
L2543343 97363333
L2495724 97458571
L2495724 97982380
" />
</g><text x="10186200.000000" y="94530000.000000"
textLength="4480714.000000" font-size="1333333.000000" lengthAdjust="spacingAndGlyphs"
text-anchor="middle" opacity="0">REF**</text>
<g class="stroked-text"><desc>REF**</desc>
<path d="M11519534 94482380
L11852867 94006190
" />
<path d="M12090962 94482380
L12090962 93482380
L11710010 93482380
L11614772 93530000
L11567153 93577619
L11519534 93672857
L11519534 93815714
L11567153 93910952
L11614772 93958571
L11710010 94006190
L12090962 94006190
" />
<path d="M11090962 93958571
L10757629 93958571
" />
<path d="M10614772 94482380
L11090962 94482380
L11090962 93482380
L10614772 93482380
" />
<path d="M9852867 93958571
L10186200 93958571
" />
<path d="M10186200 94482380
L10186200 93482380
L9710010 93482380
" />
<path d="M9186200 93482380
L9186200 93720476
" />
<path d="M9424296 93625238
L9186200 93720476
L8948105 93625238
" />
<path d="M9329058 93910952
L9186200 93720476
L9043343 93910952
" />
<path d="M8424296 93482380
L8424296 93720476
" />
<path d="M8662391 93625238
L8424296 93720476
L8186200 93625238
" />
<path d="M8567153 93910952
L8424296 93720476
L8281439 93910952
" />
</g><text x="38366200.000000" y="18200000.000000"
textLength="9290238.000000" font-size="1333333.000000" lengthAdjust="spacingAndGlyphs"
text-anchor="middle" opacity="0">Conn_01x02</text>
<g class="stroked-text"><desc>Conn_01x02</desc>
<path d="M42104296 18057142
L42151915 18104761
L42294772 18152380
L42390010 18152380
L42532867 18104761
L42628105 18009523
L42675724 17914285
L42723343 17723809
L42723343 17580952
L42675724 17390476
L42628105 17295238
L42532867 17200000
L42390010 17152380
L42294772 17152380
L42151915 17200000
L42104296 17247619
" />
<path d="M41532867 18152380
L41628105 18104761
L41675724 18057142
L41723343 17961904
L41723343 17676190
L41675724 17580952
L41628105 17533333
L41532867 17485714
L41390010 17485714
L41294772 17533333
L41247153 17580952
L41199534 17676190
L41199534 17961904
L41247153 18057142
L41294772 18104761
L41390010 18152380
L41532867 18152380
" />
<path d="M40770962 17485714
L40770962 18152380
" />
<path d="M40770962 17580952
L40723343 17533333
L40628105 17485714
L40485248 17485714
L40390010 17533333
L40342391 17628571
L40342391 18152380
" />
<path d="M39866200 17485714
L39866200 18152380
" />
<path d="M39866200 17580952
L39818581 17533333
L39723343 17485714
L39580486 17485714
L39485248 17533333
L39437629 17628571
L39437629 18152380
" />
<path d="M39199534 18247619
L38437629 18247619
" />
<path d="M38009058 17152380
L37913820 17152380
L37818581 17200000
L37770962 17247619
L37723343 17342857
L37675724 17533333
L37675724 17771428
L37723343 17961904
L37770962 18057142
L37818581 18104761
L37913820 18152380
L38009058 18152380
L38104296 18104761
L38151915 18057142
L38199534 17961904
L38247153 17771428
L38247153 17533333
L38199534 17342857
L38151915 17247619
L38104296 17200000
L38009058 17152380
" />
<path d="M36723343 18152380
L37294772 18152380
" />
<path d="M37009058 18152380
L37009058 17152380
L37104296 17295238
L37199534 17390476
L37294772 17438095
" />
<path d="M36390010 18152380
L35866200 17485714
" />
<path d="M36390010 17485714
L35866200 18152380
" />
<path d="M35294772 17152380
L35199534 17152380
L35104296 17200000
L35056677 17247619
L35009058 17342857
L34961439 17533333
L34961439 17771428
L35009058 17961904
L35056677 18057142
L35104296 18104761
L35199534 18152380
L35294772 18152380
L35390010 18104761
L35437629 18057142
L35485248 17961904
L35532867 17771428
L35532867 17533333
L35485248 17342857
L35437629 17247619
L35390010 17200000
L35294772 17152380
" />
<path d="M34580486 17247619
L34532867 17200000
L34437629 17152380
L34199534 17152380
L34104296 17200000
L34056677 17247619
L34009058 17342857
L34009058 17438095
L34056677 17580952
L34628105 18152380
L34009058 18152380
" />
</g><text x="38086200.000000" y="27950000.000000"
textLength="1909286.000000" font-size="1333333.000000" lengthAdjust="spacingAndGlyphs"
text-anchor="middle" opacity="0">J1</text>
<g class="stroked-text"><desc>J1</desc>
<path d="M38419534 26902380
L38419534 27616666
L38467153 27759523
L38562391 27854761
L38705248 27902380
L38800486 27902380
" />
<path d="M37419534 27902380
L37990962 27902380
" />
<path d="M37705248 27902380
L37705248 26902380
L37800486 27045238
L37895724 27140476
L37990962 27188095
" />
</g></g>
<g style="fill:#000000; fill-opacity:0.0; 
stroke:#000000; stroke-width:100000.000000; stroke-opacity:1; 
stroke-linecap:round; stroke-linejoin:round;">
<path d="M110511200 71800000
L110511200 83230000
" />
<path d="M54001200 79810000
L54001200 91240000
" />
<path d="M108611200 42600000
L108611200 51490000
" />
<path d="M110511200 83230000
L126391200 83230000
" />
<path d="M121941200 42600000
L108611200 42600000
" />
<path d="M126391200 71800000
L110511200 71800000
" />
<path d="M120041200 92760000
L120041200 39420000
" />
<path d="M54001200 39420000
L54001200 41960000
" />
<path d="M120041200 39420000
L54001200 39420000
" />
<path d="M121941200 51490000
L121941200 42600000
" />
<path d="M55521200 92760000
L120041200 92760000
" />
<path d="M54001200 41960000
L51461200 44500000
" />
<path d="M108611200 51490000
L121941200 51490000
" />
<path d="M54001200 91240000
L55521200 92760000
" />
<path d="M51461200 44500000
L51461200 77270000
" />
<path d="M126391200 83230000
L126391200 71800000
" />
<path d="M51461200 77270000
L54001200 79810000
" />
<path d="M97646200 5710000
L109376200 13700000
" />
<path d="M85286200 5710000
L73556200 13700000
" />
<path d="M97646200 29950000
L109376200 21960000
" />
<path d="M85286200 29940000
L73556200 21960000
" />
<path d="M73556199.881262 13699999.825485 A4995298.000000 4995298.000000 0.0 0 0 73560652.762602 21963026.349726" />
<path d="M109371747.237398 21963026.349726 A4995298.000000 4995298.000000 0.0 0 0 109376200.118738 13699999.825485" />
<path d="M97646200.015441 5709999.969717 A13604661.000000 13604661.000000 0.0 0 0 85293426.846949 5706317.699399" />
<path d="M85293426.846949 29953682.300601 A13604661.000000 13604661.000000 0.0 0 0 97646200.015441 29950000.030283" />
<circle cx="106566200.000000" cy="17830000.000000" r="2000000.000000" /> 
<circle cx="91466200.000000" cy="17830000.000000" r="10000000.000000" /> 
<circle cx="76366200.000000" cy="17830000.000000" r="2000000.000000" /> 
<path d="M41426200 46010000
L40426200 45010000
" />
<path d="M40831038 46980000
L40201038 46980000
" />
<path d="M41426200 46010000
L41426200 50610000
" />
<path d="M41426200 50610000
L40426200 51610000
" />
<path d="M40516038 46665000
L40516038 47295000
" />
<path d="M40426200 51610000
L34826200 51610000
" />
<path d="M40426200 45010000
L34826200 45010000
" />
<path d="M34826200 45010000
L34826200 51610000
" />
<circle cx="38126200.000000" cy="48310000.000000" r="3150000.000000" /> 
<path d="M143851200 42925000
L143850200 40756000
" />
<path d="M152111200 38280000
L152111200 43110000
" />
<path d="M142581200 43110000
L142581200 38280000
" />
<path d="M143851200 42925000
L143850200 40756000
" />
<path d="M152111200 43110000
L142581200 43110000
" />
<path d="M142581200 38280000
L152111200 38280000
" />
<circle cx="143851200.000000" cy="41840000.000000" r="1095000.000000" /> 
<path d="M130176200 21620000
L123876200 21620000
" />
<path d="M121946200 20370000
L123876200 20370000
" />
<path d="M132106200 20370000
L130176200 20370000
" />
<path d="M123876200 21620000
L123876200 19120000
" />
<path d="M123876200 19120000
L130176200 19120000
" />
<path d="M130176200 19120000
L130176200 21620000
" />
<path d="M135686200 79460000
L135686200 72960000
" />
<path d="M135686200 72960000
L134561200 72960000
" />
<path d="M134186200 79460000
L135686200 79460000
" />
<path d="M134561200 72960000
L134186200 73335000
" />
<path d="M134186200 73335000
L134186200 79460000
" />
<path d="M12216200 68020000
L9046200 68020000
" />
<path d="M8726200 63440000
L12976200 63440000
" />
<path d="M16156200 73430000
L18696200 73430000
" />
<path d="M18946200 58800000
L18946200 58290000
" />
<path d="M8406200 73430000
L12976200 73430000
" />
<path d="M6506200 63220000
L6506200 69320000
" />
<path d="M16156200 68450000
L18696200 68450000
" />
<path d="M10186200 62660000
L10186200 60120000
" />
<path d="M12976200 59360000
L12976200 59740000
" />
<path d="M8406200 68400000
L8406200 64340000
" />
<path d="M16156200 78440000
L18696200 78440000
" />
<path d="M9046200 59740000
L9046200 63040000
" />
<path d="M6506200 59440000
L6506200 63370000
" />
<path d="M18696200 73430000
L18696200 69370000
" />
<path d="M12216200 64720000
L12216200 65100000
" />
<path d="M12976200 73050000
L12976200 69750000
" />
<path d="M16156200 59360000
L16156200 63420000
" />
<path d="M10186200 62660000
L12976200 62660000
" />
<path d="M14126200 58290000
L14376200 58800000
" />
<path d="M8666200 58800000
L7516200 58800000
" />
<path d="M18696200 63420000
L18696200 59360000
" />
<path d="M12976200 74370000
L12976200 74750000
" />
<path d="M10186200 65100000
L12976200 65100000
" />
<path d="M18696200 69370000
L16156200 69370000
" />
<path d="M12976200 74750000
L12976200 78060000
" />
<path d="M12976200 69370000
L8406200 69370000
" />
<path d="M18946200 58800000
L15896200 58800000
" />
<path d="M17176200 63020000
L17806200 59970000
" />
<path d="M16156200 74370000
L18696200 74370000
" />
<path d="M17046200 62890000
L17676200 59840000
" />
<path d="M12976200 62660000
L12976200 60120000
" />
<path d="M9046200 74750000
L12216200 74750000
" />
<path d="M6506200 63420000
L8406200 63420000
" />
<path d="M7266200 58290000
L7516200 58800000
" />
<path d="M8406200 73430000
L8406200 69370000
" />
<path d="M6506200 59360000
L6506200 58800000
" />
<path d="M10186200 72670000
L10186200 70130000
" />
<path d="M8406200 74370000
L8406200 78440000
" />
<path d="M18696200 64390000
L16156200 64390000
" />
<path d="M12976200 63040000
L12976200 59740000
" />
<path d="M9046200 78060000
L12216200 78060000
" />
<path d="M12976200 67640000
L10186200 67640000
" />
<path d="M6506200 74370000
L8406200 74370000
" />
<path d="M12976200 69370000
L12976200 69750000
" />
<path d="M8916200 58290000
L7266200 58290000
" />
<path d="M13366200 78970000
L15896200 78970000
" />
<path d="M17176200 78030000
L17806200 74980000
" />
<path d="M12216200 63040000
L12216200 62660000
" />
<path d="M16156200 63420000
L18696200 63420000
" />
<path d="M12976200 68400000
L12976200 64340000
" />
<path d="M15776200 58800000
L15776200 78970000
" />
<path d="M17046200 77900000
L17676200 74860000
" />
<path d="M12216200 78060000
L12216200 77670000
" />
<path d="M17176200 73030000
L17806200 69980000
" />
<path d="M8406200 59360000
L6506200 59360000
" />
<path d="M16156200 74370000
L16156200 78440000
" />
<path d="M13366200 63730000
L13366200 78910000
" />
<path d="M18946200 58650000
L18946200 78970000
" />
<path d="M9046200 64720000
L12216200 64720000
" />
<path d="M10186200 77670000
L12976200 77670000
" />
<path d="M17176200 68050000
L17806200 65000000
" />
<path d="M10186200 70130000
L12976200 70130000
" />
<path d="M12216200 73050000
L12216200 72670000
" />
<path d="M12216200 69750000
L12216200 70130000
" />
<path d="M18946200 58290000
L14126200 58290000
" />
<path d="M7516200 63440000
L6506200 63440000
" />
<path d="M14376200 58800000
L13366200 58800000
" />
<path d="M12216200 68020000
L12216200 67640000
" />
<path d="M17046200 67920000
L17676200 64870000
" />
<path d="M12976200 72670000
L12976200 70130000
" />
<path d="M16156200 64390000
L16156200 68450000
" />
<path d="M15896200 58800000
L14376200 58800000
" />
<path d="M8916200 58290000
L8666200 58800000
" />
<path d="M12976200 77670000
L12976200 75130000
" />
<path d="M12976200 78440000
L8406200 78440000
" />
<path d="M15896200 78970000
L18946200 78970000
" />
<path d="M10186200 67640000
L10186200 65100000
" />
<path d="M12976200 59360000
L8406200 59360000
" />
<path d="M18696200 68450000
L18696200 64390000
" />
<path d="M9046200 63040000
L12216200 63040000
" />
<path d="M6506200 73430000
L8406200 73430000
" />
<path d="M10186200 60120000
L12976200 60120000
" />
<path d="M13366200 63880000
L13366200 58800000
" />
<path d="M12976200 78440000
L12976200 78060000
" />
<path d="M12976200 73430000
L12976200 73050000
" />
<path d="M8406200 69370000
L6506200 69370000
" />
<path d="M6506200 78440000
L6506200 74370000
" />
<path d="M8666200 63440000
L7516200 63440000
" />
<path d="M9046200 68020000
L9046200 64720000
" />
<path d="M9046200 73050000
L12216200 73050000
" />
<path d="M17046200 72900000
L17676200 69850000
" />
<path d="M18696200 74370000
L18696200 78440000
" />
<path d="M6506200 64340000
L12976200 64340000
" />
<path d="M7516200 58800000
L6506200 58800000
" />
<path d="M6506200 68400000
L12976200 68400000
" />
<path d="M8406200 63420000
L8406200 59360000
" />
<path d="M8406200 74370000
L12976200 74370000
" />
<path d="M8406200 78440000
L6506200 78440000
" />
<path d="M6506200 78970000
L13366200 78970000
" />
<path d="M12976200 63420000
L12976200 63040000
" />
<path d="M9046200 74750000
L9046200 78060000
" />
<path d="M6506200 74370000
L6506200 73430000
" />
<path d="M10186200 75130000
L12976200 75130000
" />
<path d="M16156200 69370000
L16156200 73430000
" />
<path d="M9046200 69750000
L12216200 69750000
" />
<path d="M12216200 74750000
L12216200 75130000
" />
<path d="M12216200 59740000
L12216200 60120000
" />
<path d="M10186200 77670000
L10186200 75130000
" />
<path d="M13366200 58800000
L8666200 58800000
" />
<path d="M10186200 72670000
L12976200 72670000
" />
<path d="M18696200 59360000
L16156200 59360000
" />
<path d="M6506200 73430000
L6506200 69370000
" />
<path d="M9046200 69750000
L9046200 73050000
" />
<path d="M6506200 78970000
L6506200 78440000
" />
<path d="M9046200 59740000
L12216200 59740000
" />
<path d="M17776200.331718 64899999.639437 A679412.000000 679412.000000 0.0 0 0 16812204.436304 64944380.490410" />
<path d="M17726200.288387 78030000.357689 A2055262.000000 2055262.000000 0.0 0 0 17787886.455180 74881760.478631" />
<path d="M16856200.022589 72829999.987402 A595399.000000 595399.000000 0.0 0 0 17784899.198191 72972972.209962" />
<path d="M17776199.870502 74880000.143574 A686804.000000 686804.000000 0.0 0 0 16802205.288016 74934468.255257" />
<path d="M16846199.856726 59879999.892728 A2436001.000000 2436001.000000 0.0 0 0 16894463.081410 62862332.934832" />
<path d="M16846199.856726 74889999.892728 A2436001.000000 2436001.000000 0.0 0 0 16894463.081410 77872332.934832" />
<path d="M16856200.022589 62819999.987402 A595399.000000 595399.000000 0.0 0 0 17784899.198191 62962972.209962" />
<path d="M17726200.288387 68050000.357689 A2055262.000000 2055262.000000 0.0 0 0 17787886.455180 64901760.478631" />
<path d="M16846199.856726 64909999.892728 A2436001.000000 2436001.000000 0.0 0 0 16894463.081410 67892332.934832" />
<path d="M17776200.331718 59869999.639437 A679412.000000 679412.000000 0.0 0 0 16812204.436304 59914380.490410" />
<path d="M16846199.856726 69889999.892728 A2436001.000000 2436001.000000 0.0 0 0 16894463.081410 72872332.934832" />
<path d="M17776200.331718 69879999.639437 A679412.000000 679412.000000 0.0 0 0 16812204.436304 69924380.490410" />
<path d="M16856200.022589 67849999.987402 A595399.000000 595399.000000 0.0 0 0 17784899.198191 67992972.209962" />
<path d="M17726200.288387 63020000.357689 A2055262.000000 2055262.000000 0.0 0 0 17787886.455180 59871760.478631" />
<path d="M17726200.288387 73030000.357689 A2055262.000000 2055262.000000 0.0 0 0 17787886.455180 69881760.478631" />
<path d="M16856199.931684 77830000.036786 A590593.000000 590593.000000 0.0 0 0 17775204.599708 77985425.563169" />
<path d="M30516200 58470000
L30516200 77520000
" />
<path d="M45756200 78790000
L45756200 58470000
" />
<path d="M45756200 58470000
L30516200 58470000
" />
<path d="M30516200 77520000
L31786200 78790000
" />
<path d="M31786200 78790000
L45756200 78790000
" />
<path d="M37626200 19230000
L37626200 21130000
" />
<path d="M38976200 29900000
L42026200 30530000
" />
<path d="M43196200 31670000
L33006200 31670000
" />
<path d="M33946200 26090000
L37246200 26090000
" />
<path d="M38946200 25700000
L42256200 25700000
" />
<path d="M37626200 28880000
L37626200 31420000
" />
<path d="M37246200 21770000
L33946200 21770000
" />
<path d="M37626200 19230000
L38566200 19230000
" />
<path d="M37246200 26090000
L38946200 26090000
" />
<path d="M38566200 21130000
L38566200 25700000
" />
<path d="M33006200 28620000
L33006200 31670000
" />
<path d="M33566200 28880000
L33566200 31420000
" />
<path d="M37626200 31420000
L33566200 31420000
" />
<path d="M38566200 21130000
L42636200 21130000
" />
<path d="M37246200 25700000
L33946200 25700000
" />
<path d="M42636200 21130000
L42636200 19230000
" />
<path d="M43196200 31670000
L43196200 28620000
" />
<path d="M42636200 28880000
L38566200 28880000
" />
<path d="M42636200 25700000
L42636200 21130000
" />
<path d="M37626200 21130000
L33566200 21130000
" />
<path d="M34326200 22910000
L36866200 22910000
" />
<path d="M37626200 28880000
L33566200 28880000
" />
<path d="M43196200 27100000
L43196200 26090000
" />
<path d="M41866200 22910000
L41866200 25700000
" />
<path d="M43696200 26850000
L43196200 27100000
" />
<path d="M42256200 21770000
L42256200 24940000
" />
<path d="M42636200 25700000
L42256200 25700000
" />
<path d="M33566200 25700000
L33946200 25700000
" />
<path d="M39326200 25700000
L41866200 25700000
" />
<path d="M33006200 26090000
L33946200 26090000
" />
<path d="M38566200 19230000
L38566200 21130000
" />
<path d="M33946200 24940000
L34326200 24940000
" />
<path d="M42256200 24940000
L41866200 24940000
" />
<path d="M42636200 19230000
L43196200 19230000
" />
<path d="M42256200 21770000
L38946200 21770000
" />
<path d="M38946200 24940000
L39326200 24940000
" />
<path d="M38566200 25700000
L38946200 25700000
" />
<path d="M33006200 26090000
L33006200 28620000
" />
<path d="M43696200 21640000
L43196200 21390000
" />
<path d="M38946200 21770000
L38946200 24940000
" />
<path d="M43696200 21640000
L43696200 19990000
" />
<path d="M37246200 24940000
L36866200 24940000
" />
<path d="M33566200 21130000
L33566200 19230000
" />
<path d="M33966200 29900000
L37026200 30530000
" />
<path d="M43196200 20240000
L43196200 19230000
" />
<path d="M42636200 31420000
L42636200 28880000
" />
<path d="M42256200 26090000
L38946200 26090000
" />
<path d="M33006200 19230000
L33566200 19230000
" />
<path d="M38566200 28880000
L38566200 31420000
" />
<path d="M34326200 25700000
L36866200 25700000
" />
<path d="M39106200 29770000
L42146200 30400000
" />
<path d="M43196200 26090000
L43196200 21390000
" />
<path d="M39326200 22910000
L39326200 25700000
" />
<path d="M33946200 21770000
L33946200 24940000
" />
<path d="M34326200 22910000
L34326200 25700000
" />
<path d="M33566200 19230000
L37626200 19230000
" />
<path d="M34096200 29770000
L37146200 30400000
" />
<path d="M43196200 31670000
L43696200 31670000
" />
<path d="M37626200 21130000
L37626200 25700000
" />
<path d="M43696200 31670000
L43696200 26850000
" />
<path d="M33566200 25700000
L33566200 21130000
" />
<path d="M43696200 19990000
L43196200 20240000
" />
<path d="M43196200 26090000
L42256200 26090000
" />
<path d="M33006200 28620000
L43196200 28620000
" />
<path d="M33006200 19230000
L33006200 26090000
" />
<path d="M39326200 22910000
L41866200 22910000
" />
<path d="M37246200 21770000
L37246200 24940000
" />
<path d="M43196200 21390000
L43196200 20240000
" />
<path d="M37626200 25700000
L37246200 25700000
" />
<path d="M36866200 22910000
L36866200 25700000
" />
<path d="M43196200 28620000
L43196200 27100000
" />
<path d="M38566200 31420000
L42636200 31420000
" />
<path d="M38566200 19230000
L42636200 19230000
" />
<path d="M42126199.856426 30499999.870502 A686804.000000 686804.000000 0.0 0 0 42071731.744743 29526005.288016" />
<path d="M39166200.012598 29580000.022589 A595399.000000 595399.000000 0.0 0 0 39023227.790038 30508699.198191" />
<path d="M37116199.776674 29570000.296249 A2442007.000000 2442007.000000 0.0 0 0 34126371.098365 29608582.123709" />
<path d="M38976199.642311 30450000.288387 A2055262.000000 2055262.000000 0.0 0 0 42124439.521369 30511686.455180" />
<path d="M37116200.360563 30500000.331718 A679412.000000 679412.000000 0.0 0 0 37071819.509590 29536004.436304" />
<path d="M34166199.762765 29579999.574614 A595400.000000 595400.000000 0.0 0 0 34023227.591657 30508699.385450" />
<path d="M33966200.281241 30449999.774658 A2063055.000000 2063055.000000 0.0 0 0 37126175.676319 30521533.715672" />
<path d="M42116200.107272 29569999.856726 A2436001.000000 2436001.000000 0.0 0 0 39133867.065168 29618263.081410" />
<g >
</g>
<g >
</g>
<g >
</g>
<g >
</g>
<g >
</g>
<g >
</g>
<g >
</g>
<g >
</g>
<g >
</g>
<g >
</g>
<g >
</g>
<g >
</g>
<g >
</g>
<g >
</g>
<g >
</g>
<g >
</g>
</g>
<g style="fill:#000000; fill-opacity:0.0; 
stroke:#000000; stroke-width:100000.000000; stroke-opacity:1; 
stroke-linecap:round; stroke-linejoin:round;">
</g>
<g style="fill:#000000; fill-opacity:0.0; 
stroke:#000000; stroke-width:150000.000000; stroke-opacity:1; 
stroke-linecap:round; stroke-linejoin:round;">
<circle cx="149886200.000000" cy="94030000.000000" r="2500000.000000" /> 
<circle cx="10186200.000000" cy="7670000.000000" r="2500000.000000" /> 
<circle cx="149886200.000000" cy="7670000.000000" r="2500000.000000" /> 
<circle cx="10186200.000000" cy="94030000.000000" r="2500000.000000" /> 
<g >
</g>
<g >
</g>
<g >
</g>
<g >
</g>
<g >
</g>
<g >
</g>
<g >
</g>
<g >
</g>
<g >
</g>
<g >
</g>
<g >
</g>
<g >
</g>
<g >
</g>
<g >
</g>
<g >
</g>
<g >
</g>
</g>
<g style="fill:#000000; fill-opacity:0.0; 
stroke:#000000; stroke-width:150000.000000; stroke-opacity:1; 
stroke-linecap:round; stroke-linejoin:round;">
</g>
<g style="fill:#000000; fill-opacity:0.0; 
stroke:#000000; stroke-width:100000.000000; stroke-opacity:1; 
stroke-linecap:round; stroke-linejoin:round;">
<path d="M160046200 50000
L26200 50000
" />
<path d="M26200 50000
L26200 101650000
" />
<path d="M26200 101650000
L160046200 101650000
" />
<path d="M160046200 101650000
L160046200 50000
" />
<g >
</g>
<g >
</g>
<g >
</g>
<g >
</g>
<g >
</g>
<g >
</g>
<g >
</g>
<g >
</g>
<g >
</g>
<g >
</g>
<g >
</g>
<g >
</g>
<g >
</g>
<g >
</g>
<g >
</g>
<g >
</g>
</g> 
</svg>
